<svg width="1440" height="652" fill="none" xmlns="http://www.w3.org/2000/svg"><mask id="a" style="mask-type:alpha" maskUnits="userSpaceOnUse" x="-4" y="3" width="1444" height="649"><path d="M-4 3h1444v649H-4V3Z" fill="#333"/></mask><g mask="url(#a)"><path d="M-15 3h1463v649H-15V3Z" fill="#333"/></g><path d="M1098.69 210.258c.83-.478 1.05-1.395.62-2.763a20.614 20.614 0 0 1-1.65-6.746c-.09-.775-.18-1.275-.33-1.465-.02-.03-.03-.059-.06-.042l-.05 1.013c.04.886.06 1.344.01 1.378l-.11-.53c-.26-1.745-.75-3.078-1.44-4.063-.1-.101-.13-.161-.19-.126-.16.132-.1 1.001.22 2.636.14.588.26 1.071.35 1.372.23.736.35 1.342.28 1.851-.01.322-.15.56-.38.697-.24.137-.33.464-.28 1.027.05.564.04.886-.08.954-.06.035-.1.022-.19-.05-.1-.177-.23-.537-.32-1.113l-.13-.635a33.34 33.34 0 0 1-.73-4.199c-.21-1.656-.51-3.215-.96-4.735-.11-.407-.33-1.465-.59-3.211-.32-2.063-.52-3.368-.55-3.902-.01-.153-.09-.623-.23-1.411-.16-.495.03-.92.56-1.228.77-.444 1.02-.827.8-1.135-.11-.131-.27-.198-.47-.278-.24-.062-.38-.1-.43-.189l-.02-.029c-.05-.089-.03-.259.11-.497 1.74-2.386 3.66-4.2 5.67-5.363.83-.478 1.65-.834 2.51-1.054a7.053 7.053 0 0 1-2.01 1.714c-.24.136-.45.256-.64.329-.77.444-1.3.752-1.58.952-.47.35-.74.703-.85 1.123-.02.17 0 .276.03.335.15.19.59.057 1.36-.387.71-.411 1.62-1.093 2.77-2.035l1.52-1.194c.22-.166.44-.333.73-.503.3-.171.6-.342.85-.449.28-.125.52-.261.73-.381.23-.137.47-.273.63-.405.4-.269.65-.652.76-1.149v-.076c-.04-.059-.18-.097-.45-.095-.33-.088-.53-.168-.59-.256-.01-.03 0-.077.06-.111.05.013.12.008.18-.026.15-.085.11-.297-.13-.635-.23-.339-.49-.507-.75-.552a1.809 1.809 0 0 0-.75.075c-.35.082-.54.079-.64-.023-.07-.118-.05-.211.1-.297.12-.068.29-.124.51-.214.24-.06.45-.18.69-.317.38-.222.53-.583.43-1.159-.11-.53-.24-.966-.48-1.304-.47-.078-1.39.252-2.72 1.021a48.863 48.863 0 0 0-6.53 4.481c-1.15.942-1.86 1.505-2.09 1.641-.05-.012-.13-.084-.25-.215-.08-.148-.2-.355-.34-.592a3.805 3.805 0 0 0-.65-1.125c-.06-.118-.13-.16-.18-.173l.16.466c.16.495.18.801.06.869-.16.056-.32-.011-.43-.142-.11-.178-.22-.508-.26-.995-.04-.411-.01-.628.14-.713.06-.034.23-.014.4.083.2.079.37.1.43.066.15-.086.04-.34-.24-.767l-.38-.452c-.27-.397-.44-.617-.44-.693-.01-.076.01-.123.07-.157.06-.034.13-.039.24-.06a.674.674 0 0 0 .24-.061c.15-.085.15-.285-.04-.61-.19-.478-.2-.754-.02-.857.21-.119.21-.594.01-1.424-.09-.5-.2-.83-.35-1.02-.1-.102-.17-.144-.27-.122-.3.095-.48.121-.5.091l-.08-.071c-.04-.06.05-.187.27-.353.43-.409.58-.694.48-.872l-.22-.308c-.38-.528-1.42-.681-3.11-.41l-1.5.273 1.2-.929c1.21-.976 1.83-1.535 1.87-1.675-.04-.211-.14-.389-.26-.596-.12-.131-.21-.156-.33-.088-.12.069-.14.162-.03.293.03.059-.01.123-.16.208-.38.223-.85.297-1.45.287-.24-.016-.38-.054-.47-.125-.28-.427-.13-.788.4-1.096l.92-.454c.41-.239.62-.435.59-.617-.01-.152.4-.468 1.23-.947l1.32-.722c1.51-.871 2.49-1.558 2.91-2.073.13-.115.2-.196.29-.247.15-.086.27-.078.35-.006.08.071.25.092.49.031.29-.047.57-.172.95-.347.78-.415 1.25-.489 1.5-.198.09.148.06.242-.09.327l-.19.073c-.31.018-.93.301-1.88.848-.95.547-1.53.842-1.75.932-.21.12-.22.366 0 .75.15.19.26.321.37.376.11.055.58-.096 1.4-.528.85-.495 1.29-.828 1.28-.98.13-.192.54-.507 1.19-.883.18-.103.63-.283 1.35-.541.61-.235 1.21-.425 1.77-.55.94-.225 1.56-.109 1.91.36.2.279.32.838.34 1.695-.02.445.03.733.1.851.05.013.09.025.2.004l.32-.341c.61-.511 1.06-1.09 1.36-1.736.31-.968.52-1.486.58-1.52.11-.022.22.033.35.193.29.504.4.957.28 1.301-.07.356-.09.602.03.733l.06.042c.06-.034.17-.255.28-.675.15-.438.27-.981.33-1.689.04-.691.01-1.348-.14-2.013a4.22 4.22 0 0 0-.74-1.701c-.62-.866-1.54-1.439-2.82-1.73-1.43-.235-3.02-.11-4.78.471-1.75.58-3.35 1.303-4.74 2.107l-.9.559c0 .199-.2.395-.53.583l-.28.124c-.56.202-.92.331-1.1.433-.08.052-.17.103-.25.184-.46.35-1.22.823-2.19 1.387-1.75 1.085-3.35 2.131-4.76 3.18-.69.516-1.1.832-1.19 1.006-.13.191-.32.34-.59.494-.26.154-.74.55-1.41 1.172-.63.559-1.59 1.428-2.98 2.629-.72.61-1.46 1.236-2.16 1.875l-.99.887a26.973 26.973 0 0 0-3.9 3.909c-1.19 1.481-1.82 3.264-1.94 5.384-.06.709-.04 1.166.11 1.356l.02.03c.18.173.64.222 1.42.129-.12.268-.22.442-.32.617-.26.429-.39.819-.46 1.176-.04.339.05.839.3 1.482l.15.39c.1.453.25.842.43 1.092.18.249.4.282.65.175.59-.342.97-.992 1.17-1.939.12-.42.3-.845.51-1.24.54-.706 1.1-1.506 1.63-2.441.88-1.492 1.48-2.355 1.84-2.56.04.013.1-.022.19-.073.24-.137.48-.396.77-.796.25-.383.62-.757 1.09-1.184l.16-.132c.31-.217.84-.724 1.67-1.554a42 42 0 0 1 1.36-1.338c.27-.277.52-.46.7-.562.5-.291 1.33-.969 2.46-2.017.05-.064.09-.127.12-.144.15-.086.29-.048.44.142.26.397.54 1.422.82 3.074l1.29 6.875c.42 2.241.6 3.639.54 4.148a2.2 2.2 0 0 1-.43.837c-.18.226-.5.566-.88 1.064-1.72 2.017-2.82 3.247-3.36 3.678-.43.286-.82.707-1.14 1.247-.24.336-.55.753-.91 1.234-.74.902-1.18 1.51-1.31 1.824-.1.45-.01.874.26 1.271.25.368.54.519.84.501.31-.019.54.044.74.247.08.071.19.202.37.299.68.433 1.15.559 1.37.469.26-.108.39-.146.45-.18.36-.206.72-.534 1.07-1.014a47.8 47.8 0 0 1 3.09-3.601c.12.055.18.097.27.046.06-.034.1-.022.12.008l-.04.064c-.14.161-.15.284-.08.403.08.071.23.138.44.218.49.108.83.272 1.01.521.17.22.23.538.21.983-.09.526.62 4.695 2.15 12.535.12.758.31 1.635.61 2.643.22.783.5 1.409.81 1.866.13.16.26.321.42.464 2.44 1.63 4.45 1.969 6.02 1.063Zm-6.53-25.747c-.22.043-.39-.053-.59-.332-.1-.102-.07-.195.01-.246.12-.069.2-.073.31-.019.11.055.19.127.27.198.12.208.11.331 0 .399Zm-18.5-9.609c-.23.136-.39.146-.49.044-.16-.219.43-1.036 1.77-2.479 1.67-1.754 2.74-2.768 3.22-3.042l.09-.051c.35-.205.74-.55 1.2-1.129.44-.532.89-.911 1.31-1.15l.43-.21c.33-.188.6-.465.79-.813.2-.349.44-.608.74-.779.47-.274.82-.279 1.08-.035.12.208.03.458-.34.71-.37.252-.61.511-.76.796-.15.285-.59.617-1.27 1.01-.68.47-.95.747-.89.865.12.131.04.259-.23.412l-.78.368c-.32.188-.45.38-.37.574.07.195.03.335-.12.421-.09.051-.17.102-.3.094-.13.039-.33.112-.56.249-.51.29-.98.64-1.42 1.095-.9.912-1.63 1.691-2.22 2.308-.35.358-.64.605-.88.742Zm25.05-18.961c-.39.223-.79.339-1.25.443-.42.086-.7.011-.81-.12-.06-.089-.03-.182.15-.284.23-.137.76-.322 1.51-.52.53-.109.82-.156.89-.038.02.03.02.03-.03.093-.11.145-.25.307-.46.426Zm-3.43 45.12.03-.14c0-.077 0-.276-.02-.581.02-.322-.02-.657-.09-1.051-.07-.394-.12-.758-.19-1.076a2.549 2.549 0 0 0-.25-.72l-.13-.007c-.1.572-.04 1.289.2 2.178.16.771.27 1.224.38 1.355.02.029.04.059.07.042Zm-.55-4.025c.13-.115.06-.709-.09-1.802-.26-1.393-.52-2.266-.81-2.692-.08-.072-.1-.102-.13-.085-.11.069-.14.361-.08.878.1 1.128.26 1.822.48 2.131l.05.364c-.05-.012-.05-.012-.07.005-.03.017-.09.051-.09.127.09.224.21.432.33.639.12.131.25.291.41.435Zm-.23-2.314a.247.247 0 0 1-.03-.182c-.02-.03 0-.077-.02-.106.01-.047-.02-.106-.01-.153-.02-.029 0-.076-.07-.118.06.165.03.258-.06.31-.02.017-.11-.055-.19-.203-.18-.249-.36-.622-.51-1.164-.09-.347-.11-.529-.07-.593.06-.034.17.021.31.134.29.427.49.906.53 1.393.15.19.16.419.12.682Zm-.44-2.194c.09-.051.09-.327.07-.831-.04-.488-.09-.776-.14-.865-.17-.219-.3-.38-.43-.464-.03.017-.04.064-.08.127-.03.094-.05.187-.06.31-.01.123-.01.246-.02.369-.04.14-.04.217-.02.246.02.03.07.119.11.254.04.135.11.254.16.343.05.089.1.177.13.237.14.16.2.278.28.274Zm-9.1.163c.25-.183.6-.464.96-.869.27-.353.39-.544.36-.603-.02-.03-.12-.008-.3.094l-.46.303-.74.627c-.25.259-.33.463-.24.535.05.089.15.067.33-.035l.09-.052Zm8.7-2.298c.11-.145.11-.696-.02-1.607l-.17-1.322a.194.194 0 0 0 .08-.127c-.01-.704-.09-1.174-.24-1.441-.17-.219-.25-.367-.29-.427-.31-.409-.52-.565-.67-.48-.09.051 0 .276.23.66-.09.128-.12.544-.05 1.213.14 1.339.37 2.229.63 2.673.02.029.01.076.04.135 0 .076.04.135.06.241.02.106.06.165.07.195-.01.047.01.076.04.136.13.16.2.202.26.168l.03-.017Zm-6.89.505c.44-.256.54-.553.35-.955-.05-.013-.1.022-.16.056s-.15.085-.25.183c-.1.098-.22.243-.31.417-.07.157-.13.268-.05.339.06.089.21.08.42-.04Zm7.6-7.944c.06-.035.13-.115.24-.213a.797.797 0 0 0 .14-.361c.04-.14.04-.217 0-.276l-.05-.012c-.11-.055-.29-.029-.49.091-.2.149-.36.281-.48.473-.13.191-.14.314-.08.403.09.101.28.075.64-.054l.08-.051Zm1.16-1.142c.18-.102.23-.213.12-.344-.17-.219-.36-.346-.53-.29-.14.086-.18.226-.17.455l.05.088c.15.19.32.211.53.091Zm8.46-22.053c.27-.154.44-.409.54-.783.1-.373.11-.619.01-.72-.05-.089-.12-.085-.24-.016l-.17.255c-.38.773-.52 1.21-.43 1.312.04.059.14.037.29-.048Zm-14.73 3.135c.4-.269.78-.644 1.06-1.12.12-.191.31-.34.5-.49.24-.136.43-.209.65-.253.19.004.36-.052.45-.103.26-.154.32-.341.17-.531-.27-.397-.84-.348-1.64.113-1.09.632-1.8 1.242-2.12 1.782-.16.284-.14.513.02.733.15.19.44.142.8-.063l.11-.068Zm29.7 23.545c.09-.051.36-.205.78-.491.43-.286.98-1.115 1.69-2.475.32-.616.75-1.576 1.27-2.863.31-.768.5-1.393.61-1.889.08-.479.16-.806.24-1.01.1-.174.19-.425.3-.722.11-.145.26-.705.49-1.745.07-.356.1-.573.05-.661-.08.004-.17.178-.28.476a58.965 58.965 0 0 1-4.57 8.957c-.03.017-.05.064-.09.127-.04.064-.11.145-.18.226-.05.064-.12.145-.19.149-.06.034-.11.022-.16-.067-.08-.271 0-.674.32-1.29.6-1.292 1.11-2.104 1.58-2.453.22-.243.38-.574.48-1.024.06-.234.11-.42.22-.565 1.68-3.454 2.97-7.161 3.93-11.184.35-1.583.46-2.478.34-2.686-.06.035-.34.786-.82 2.209l-.36 1.078c0-.275.28-1.9.87-4.845.24-1.087.31-1.719.24-1.837-.01-.03-.01-.03-.04-.013-.12.069-.45 1.007-.95 2.875-.91 3.607-2.19 7.145-3.8 10.641-.89 1.814-1.86 3.48-3.03 4.944-.64.804-1.32 1.396-1.99 1.743-.52.261-1.02.352-1.56.308l-.2-.004c-.32-.011-.49-.108-.56-.226-.04-.059-.06-.165-.1-.301a1.17 1.17 0 0 0-.16-.495 4.59 4.59 0 0 0-.37-.499c-.1-.177-.22-.308-.3-.456-.16-.266-.13-.483.1-.573l.16-.056c.03-.017.05-.064.03-.093 0 0-.03-.059-.1-.101-.06-.043-.1-.102-.16-.144a.423.423 0 0 1-.13-.16c-.43-.74-.43-1.215 0-1.425l.51-.214c.78-.368 1.61-1.245 2.51-2.555.17-.255.4-.744.71-1.436.67-1.449 1.11-2.256 1.32-2.376l.01.03c.19.325-.06 1.183-.75 2.602-.48 1.07-.94 1.925-1.38 2.656-.19.149-.41.392-.64.681l-.08.127c-.06.035-.13.116-.21.243-.11.098-.13.191-.1.251.02.029.11.054.25.016.29-.048.53-.033.65.098.13.085.27.122.44.02.09-.052.24-.137.4-.269 1.09-.984 2.04-2.757 2.78-5.236.41-1.341.33-2.439-.2-3.357-.09-.148-.15-.19-.24-.138-.06.034-.14.238-.27.628-.11.497-.23.764-.33.786l-.14.039c-.09-.224-.12-.559-.09-.975.05-.538-.01-.903-.13-1.11-.1-.178-.23-.262-.47-.278-.21.044-.41-.083-.58-.379-.21-.232-.38-.528-.57-.854-.19-.202-.53-.366-1.03-.427-.81-.09-1.58.079-2.29.413-1.36.663-2.43 1.6-3.22 2.842-1.12 2.226-1.68 4.679-1.67 7.358.02 1.806.37 3.577 1.09 5.371.13.36.3.656.47.952.19.326.41.634.69.985.3.38.81.717 1.53 1.087.56.273.97.508 1.32.778.34.24.72.417 1.09.593.41.159.95.204 1.65.192 1.5.002 2.63-.173 3.37-.524Zm-6.64-11.362c-.22.09-.37.099-.46-.049-.05-.088-.08-.271-.04-.487.04-.615.22-1.315.56-2.101.47-1.1 1.04-1.823 1.69-2.123.33-.188.59-.143.73.094.26.444.16 1.17-.34 2.211-.66 1.249-1.36 2.087-2.14 2.455Zm.81 4.071c.41-.193.68-.393.84-.602.16-.208.19-.348.16-.407-.07-.119-.2-.08-.43.01a5.96 5.96 0 0 0-.6.388c-.1.098-.14.239-.23.366-.06.157-.04.263-.01.322.02.03.1.025.27-.077Zm21.05-1.493c.09-.051.35-.205.78-.491.43-.286.97-1.115 1.69-2.475.31-.616.74-1.576 1.26-2.863.31-.769.5-1.393.61-1.889.08-.48.17-.806.25-1.01.09-.175.19-.425.29-.722.11-.145.26-.705.49-1.745.07-.356.11-.573.06-.662-.08.005-.18.179-.28.476a58.068 58.068 0 0 1-4.58 8.958c-.03.017-.04.064-.08.127-.05.064-.12.145-.19.226-.04.064-.11.144-.19.149-.06.034-.11.022-.16-.067-.07-.271.01-.674.32-1.29.6-1.292 1.12-2.104 1.59-2.454.21-.242.38-.574.47-1.023.06-.234.11-.421.23-.565 1.67-3.454 2.97-7.161 3.92-11.185.35-1.582.46-2.478.34-2.685-.05.034-.33.786-.81 2.208l-.37 1.079c0-.276.29-1.901.88-4.845.24-1.087.31-1.719.24-1.837-.02-.03-.02-.03-.05-.013-.12.069-.44 1.007-.94 2.875a61.298 61.298 0 0 1-3.81 10.641c-.88 1.814-1.85 3.48-3.02 4.944-.64.804-1.33 1.396-1.99 1.743-.52.26-1.02.352-1.56.308l-.2-.004c-.32-.011-.5-.108-.57-.226-.03-.059-.05-.165-.09-.301a1.194 1.194 0 0 0-.17-.495c-.1-.178-.25-.368-.37-.499-.1-.177-.21-.308-.3-.456-.15-.267-.12-.483.1-.573l.17-.056c.03-.017.04-.064.02-.093 0 0-.03-.059-.09-.102-.07-.042-.1-.101-.17-.143-.06-.042-.09-.101-.13-.161-.43-.74-.42-1.214.01-1.424l.51-.214c.77-.368 1.61-1.245 2.51-2.555.17-.255.4-.744.71-1.436.66-1.449 1.1-2.256 1.31-2.376l.02.03c.18.325-.07 1.183-.75 2.602-.49 1.07-.94 1.924-1.39 2.656-.19.149-.4.391-.63.681l-.08.127a.725.725 0 0 0-.22.243c-.1.098-.13.191-.09.25.01.03.11.055.24.016.29-.048.54-.032.65.099.13.084.27.122.45.019.09-.051.23-.136.4-.268 1.08-.985 2.04-2.757 2.77-5.236.41-1.341.33-2.439-.2-3.357-.08-.148-.15-.19-.24-.139-.05.035-.13.238-.26.629-.11.497-.23.764-.34.786l-.13.039c-.09-.225-.13-.559-.09-.975.04-.539-.01-.903-.13-1.11-.1-.178-.23-.262-.48-.278-.21.043-.4-.083-.57-.379-.21-.232-.39-.528-.57-.854-.2-.202-.53-.366-1.04-.428-.8-.089-1.57.08-2.29.413-1.35.664-2.43 1.601-3.21 2.842-1.12 2.227-1.68 4.68-1.67 7.359.01 1.806.37 3.577 1.09 5.371.12.36.3.656.47.952.18.325.4.634.68.985.3.38.81.717 1.54 1.087.55.273.96.508 1.32.778.33.24.71.417 1.09.593.41.159.94.203 1.65.192 1.5.002 2.62-.173 3.37-.524Zm-6.64-11.362c-.23.09-.38.099-.46-.049-.06-.089-.08-.271-.05-.487.04-.615.23-1.315.56-2.101.47-1.1 1.04-1.824 1.7-2.123.32-.188.59-.143.72.094.26.444.17 1.169-.34 2.21-.66 1.25-1.36 2.088-2.13 2.456Zm.81 4.071c.4-.193.68-.393.84-.602.15-.208.19-.348.15-.408-.06-.118-.2-.079-.42.011-.15.085-.36.205-.61.388-.1.098-.14.238-.22.366-.07.157-.05.263-.01.322.01.03.09.025.27-.077Zm13.35-11.261c0-.275.03-.492.08-.678.03-.094.03-.217.04-.34.01-.123-.03-.258-.06-.44a5.107 5.107 0 0 1-.08-.975c.01-.322.05-.585.12-.742.04-.064.05-.111.1-.175a.86.86 0 0 0 .16-.331c.05-.111.09-.251.1-.45-.03-.182-.01-.352-.01-.551.01-.199 0-.352-.01-.504-.01-.153.03-.217.03-.217-.09-.423-.09-.699 0-.827.04-.14.09-.174.11-.144.07.042.13.084.18.173l.02.029c.06.043.08.072.12.085.04.059.06.088.12.131.02.029.03.059.02.105-.03.293-.06.586-.06.984-.01.323-.01.598-.04.891-.03.292-.09.526-.21.671-.06.157-.16.331-.2.471-.05.187-.05.31-.06.433-.01.123-.01.199-.01.199s.01.076.02.229c.02.182.05.364.06.593.05.212.06.441.03.657.01.153-.01.322.01.428.01.153 0 .276-.01.399.01.152-.04.339-.09.526-.03.216-.04.615.06 1.191.06.593.24 1.165.5 1.761.28.55.54.994.77 1.332.15.191.25.368.26.444.05.089 0 .077-.14-.037-.12-.131-.27-.321-.5-.583a9.55 9.55 0 0 1-.6-.913 6.47 6.47 0 0 1-.53-1.193c-.1-.377-.13-.636-.13-.759.01-.199-.02-.457-.07-.745-.07-.318-.09-.699-.1-1.128Zm1.28-7.013a.491.491 0 0 1 .24-.061c.08-.004.14.038.17.097.04.059.03.106 0 .199-.04.064-.08.128-.17.179a.684.684 0 0 1-.27.078c-.1-.025-.14-.038-.18-.097-.03-.059-.04-.136.01-.199a.596.596 0 0 1 .2-.196Zm1.4 11.86c-.49-.507-.86-1.48-1.03-2.878a24.26 24.26 0 0 1-.18-4.277c.06-1.459.2-2.524.4-3.194.31-.693.81-1.06 1.51-1.148.75-.075 1.31.075 1.76.446.26.444.47 1.427.56 2.953.09 1.526 0 3.078-.24 4.639-.28 1.578-.81 2.636-1.59 3.203a1.2 1.2 0 0 1-.55.401c-.18.103-.39.023-.64-.145Zm8.88-7.654c-.24-.766-.44-1.443-.54-2.096-.11-.606-.27-1.224-.49-1.884-.13-.36-.23-.661-.24-.89a2.275 2.275 0 0 1-.02-.58c.01-.246-.01-.628-.09-1.051a3.024 3.024 0 0 1-.12-.606c-.01-.153 0-.276.01-.399.03-.216 0-.474-.08-.745-.21-.784-.35-1.495-.4-2.212l-.15-.864-.06-.317c-.05-.212-.07-.394-.1-.577-.03-.182-.02-.305.07-.432.05-.111.16-.132.36-.129.26.045.42-.01.45-.104.02-.093 0-.199-.11-.33a1.17 1.17 0 0 0-.47-.324c-.06-.043-.15-.068-.22-.11-.12-.084-.22-.109-.28-.151a.104.104 0 0 1-.08-.072c.03-.017.04-.064.07-.081.06-.034.15-.085.2-.196.07-.08.16-.208.21-.395.05-.186.06-.432.03-.767-.03-.534-.1-1.204-.2-1.979-.09-.975-.19-1.979-.27-3.001-.08-1.021-.1-1.877-.04-2.539.04-.538.08-1.077.14-1.662.03-1.12.15-2.138.31-3.097a9.84 9.84 0 0 1 .47-1.498c.2-.472.29-.875.23-1.239-.08-.347-.43-.817-1.09-1.42a1.735 1.735 0 0 1-.33-.363c-.05-.089-.07-.195-.09-.224a.124.124 0 0 0-.02-.106c-.02-.03-.04-.059-.08-.072-1.21-.524-2.41-.544-3.62-.119-.49.396-.86 1.246-1.08 2.514a29.54 29.54 0 0 0-.41 4.068c-.04 1.365-.04 2.391.01 3.031.07.945.18 2.225.29 3.78.11 1.908.25 3.446.38 4.632.09.699.14 1.462.2 2.255.1 1.326.23 2.513.45 3.572.15.741.3 1.482.43 2.194.01.153.05.288.09.424a8.4 8.4 0 0 0-3.62-.87c-1.4-.1-2.49.057-3.27.548-.76.474-1.38 1.384-1.83 2.713-.51 1.715-.65 3.806-.39 6.302.23 2.513.72 4.52 1.47 6.098.17.373.43.74.69 1.061 1.8 2.159 4.08 2.971 6.82 2.454 2.07-.446 3.39-1.795 3.94-4.049.03-.017.03-.017.01-.047.08-.28.19-.501.27-.628.12-.145.3-.095.55.12.15.267.33.516.5.812.43.664.87 1.357 1.36 2.016.52.689 1.01 1.195 1.53 1.486.42.235.81.441 1.24.63.42.189.73.323.96.432.23.063.46.126.73.171.24.016.56.027 1.04.029.37.024.69.112.92.221.11.054.22.109.31.134a.479.479 0 0 0 .24-.06c.21-.12.36-.205.46-.227.08-.005.14-.039.12-.068-.02-.03-.05-.089-.13-.161l-.02-.03c-2.09-1.987-3.61-3.795-4.5-5.41-.9-1.616-1.74-3.617-2.55-5.988-.17-.495-.34-.99-.57-1.528Zm-3.6-25.785c-.06-.318-.1-.653-.1-.928.03-.293.07-.556.16-.684.02-.093.09-.174.2-.272.07-.081.12-.191.21-.319.05-.11.09-.25.08-.403.02-.17-.01-.352-.02-.581-.04-.211-.04-.411-.1-.576-.01-.152-.03-.258-.03-.258l-.18-.801.09-.051c.04.013.1-.022.18-.026a.477.477 0 0 1 .21-.044c.08-.004.17.021.25.016.14.038.23.139.31.211.09.072.14.16.14.237.01.076-.08.127-.24.136-.05.035-.11.069-.1.098-.01.047.02.106.04.136.01.076.02.106.01.152.01.153-.01.323-.03.492l-.09.878c-.04.263-.1.497-.22.641-.08.128-.12.268-.16.408-.03.14-.04.263-.03.416-.01.123-.02.246-.01.322 0 .076.03.136.03.136s-.01.046-.02.169c0 .123.01.276 0 .475a5 5 0 0 1-.03.568c0 .2 0 .399-.01.522a.958.958 0 0 1-.05.263l-.03.14c-.03.017-.05.064-.06.11-.01.047-.04.14-.04.263-.01.123 0 .276-.01.475-.02.293.01.827.05 1.514.03.733.1 1.479.14 2.288.06.793.1 1.479.14 2.09.05.563.07.869.07.869s-.03-.106-.12-.331a7.935 7.935 0 0 0-.25-.842c-.06-.318-.16-.618-.2-.907-.05-.288-.08-.47-.07-.593.04-.14.02-.445-.01-.903 0-.475-.04-.962-.06-1.543a22.4 22.4 0 0 1-.07-1.343 4.36 4.36 0 0 1 0-.903c-.01-.276.01-.522.06-.709.02-.169.04-.339.03-.491a5.457 5.457 0 0 0-.06-.517Zm-.38 32.501c.03-.017.05-.063.07-.157l.24-.535c.11-.221.21-.395.31-.569.09-.175.17-.256.24-.26.11.054.13.16.11.33.01.153-.04.339-.09.526-.05.187-.11.344-.17.454.02.03-.01.047-.02.094-.04.14-.11.297-.18.577-.14.514-.35 1.108-.61 1.69-.25.582-.54.906-.86.971.06-.386.18-.93.4-1.571.2-.67.39-1.172.56-1.55Zm1.3-21.47c-.14-.038-.22-.109-.26-.245-.01-.152-.01-.305.04-.492.02-.169.08-.327.11-.42.03-.017.06.042.11.131s.08.195.11.33c.04.136.04.259.03.382a.501.501 0 0 1-.14.314Zm3.94-22.241c-.39.222-.62.236-.7.088-.11-.178.02-.369.41-.591.35-.205.61-.236.71-.059.09.148-.07.357-.42.562Zm5.73 9.594-.25-2.42c-.09-.699-.24-1.241-.47-1.626-.3-.533-.42-1.015-.4-1.461.05-.186 0-.398-.15-.664-.18-.373-.26-.72-.31-1.008a1.74 1.74 0 0 0-.24-.766l-.09-.148c-.45-.371-.73-.646-.86-.883l-.23-.461-.07-.194a.44.44 0 0 0-.27-.198c-.14-.038-.27-.046-.41-.083-.26.03-.41-.037-.5-.185l-.1-.177.13-.115.28-.125c.42-.163.75.001 1.03.475l.36.622c.15.266.33.515.53.718.2.202.41.435.55.672l.17.372c.09.224.18.372.23.461.05.089.07.118.05.165.06 1.115.32 2.385.77 3.782.17.373.24.69.24.966.03.458.03 1.085.02 1.882l-.01.399Zm6.72 33.653c2.72-1.725 4.15-5.746 4.33-12.051 0-2.803-.5-5.115-1.53-6.891-.73-1.273-1.86-2.201-3.41-2.766-1.84-.518-3.42-.392-4.76.377-.97.564-1.82 1.488-2.52 2.801-.01.047-.06.111-.08.204-.06.11-.17.331-.34.71-.07.08-.12.144-.18.178l-.06-.241c-.03-.81.01-1.425.06-1.887.07-.433.26-1.057.56-1.825 1.95-5.66 2.44-11.432 1.46-17.3l-.22-1.135c-.15-1.017-.44-1.995-.92-2.9-.43-.74-.87-1.357-1.33-1.881-.7-.662-1.43-.985-2.23-.922-.79.062-1.44.239-1.94.53-1.3.752-1.98 2.171-2.07 4.274-.07 1.658-.04 3.142.12 4.51l.25 2.895c.16 1.919.33 3.793.52 5.695.09.623.14 1.339.21 2.208.11 1.479.29 2.954.5 4.411l.04.488c.13.834.32 1.986.62 3.393.33 1.664.69 3.312 1.08 4.942l.15.818c.22 1.411.55 2.448.94 3.129.43.74 1.06 1.085 1.9 1.11 1.15-.068 2.01-.288 2.57-.613.83-.479 1.23-1.697 1.13-3.651l.04-1.09c.14-2.014.72-3.886 1.75-5.587.33-.51.71-.885 1.09-1.107.32-.141.62.04.91.543.5.858.76 2.129.75 3.829.02 1.882-.07 3.235-.27 3.982-.29 2.024-.96 3.871-2.04 5.559-.44.731-.93 1.25-1.46 1.558-1.04.598-2.19.391-3.52-.616-.7-.463-1.12-.652-1.26-.613l-.21.119c-.38.222-.35.756.13 1.585.19.326.53.719 1.02 1.149 1.13 1.004 2.48 1.566 4.03 1.657 1.19.066 2.22-.133 3.07-.629l.55-.354c.72-.733 1.45-2.538 2.2-5.415.43-1.588.69-2.844.8-3.815.27-1.854.53-2.911.76-3.2.21 1.258.16 2.746-.18 4.558-.09.45-.16.883-.21 1.345-.16 2.184-.82 4.184-2.01 6.016l-.79.89c-.51.689-.71 1.084-.66 1.173.05.089.26.045.66-.147Zm-9.6-25.869-.06-.089c-.39-.681-.67-3.359-.86-8.064.01-1.149-.02-2.158-.14-3.039-.03-1.285.01-1.976.09-2.027.03-.017.05.012.07.042.86.806 1.41 2.932 1.7 6.36-.03.844-.1 2.15-.29 3.876-.17 1.756-.36 2.732-.51 2.941Zm.65 3.728c-.13-.36 0-.95.41-1.817l.18-.378c.2-.471.46-.901.73-1.33-.02-.03-.02-.03.01-.047.08-.28.1-.649.03-1.043l-.06-.318c-.01-.076.02-.169.01-.245 0-.077-.01-.153 0-.2l-.03-.886c.05-.186.07-.356.09-.526.01-.123.01-.246.04-.339.02-.093.05-.187.04-.263.02-.047.03-.094.04-.14.03-.017.05-.187.11-.497.05-.186.1-.297.13-.314.03-.017.05.012.08.072.09.148.13.359.09.623-.13.191-.15.56-.03 1.119.04.135.03.258-.02.369-.06.11-.09.25-.08.403.01.229-.04.691-.11 1.323-.03.216-.27 1.027-.78 2.344-.48 1.346-.76 2.021-.88 2.09Zm2.72 11.214s-.01-.03-.03-.06c-.02-.029-.01-.228 0-.551-.02-.029-.01-.076 0-.199.03-.093.05-.187.06-.31.01-.123.03-.216.04-.263a.143.143 0 0 1 .05-.064l.03-.017.01.306c.02.228.01.428-.01.597-.03.217-.07.357-.11.421.01.076-.04.14-.04.14Zm.22-2.846c-.04-.059-.04-.258.02-.645.13-.666.31-1.243.55-1.702.03.106-.01.445-.14.988-.2.87-.35 1.308-.43 1.359Zm18.76 1.951c.3-.171.49-.396.64-.681.45-.93.67-2.046.65-3.377-.04-.962.04-1.84.26-2.634.14-.437.19-.824.17-1.129-.03-.258-.06-.517-.11-.682-.06-.165-.07-.317-.01-.428.81 1.268 1.63 2.214 2.51 2.851.85.653 2.11.914 3.74.801.91-.131 1.66-.329 2.29-.688 1.24-.718 2.07-2.422 2.49-5.112l.39-1.998c.36-2.105.46-3.305.3-3.571-.03-.059-.1-.101-.15-.067-.16.132-.43 1.112-.79 2.941l-.5 2.495c-.29 1.197-.8 2.361-1.58 3.479 2.15-7.28 2.91-12.731 2.19-16.378l-.06-.241-.05-.013c-.06.034-.09.251-.1.649-.08 1.429-.15 2.337-.18 2.829-.05.462-.11.772-.19.899-.07-.669-.11-1.479-.13-2.411-.02-2.281-.2-3.756-.55-4.377-.04-.059-.09-.072-.1-.102-.02-.029-.04-.059-.07-.042l-.07.632a30.618 30.618 0 0 0-.41 4.068c-.43 4.589-1.29 8.285-2.63 11.106-.28.599-.59 1.093-.95 1.421-.59.341-1.08.187-1.45-.465-.38-.651-.66-1.476-.86-2.506a19.9 19.9 0 0 1-.32-1.787c-.02-1.056.01-2.849.17-5.385-.01-.827-.12-1.356-.29-1.652-.25-.444-.66-.803-1.24-1.059-1.04-.504-1.93-.542-2.7-.098-.56.325-.92 1.005-1.01 2.006-.01.674-.12 1.094-.39 1.248-.15.085-.4.116-.73.105-.08-.072-.45-.096-1.05-.182-.83-.073-1.58.126-2.32.553-.89.513-1.54 1.363-2.02 2.586-.15.361-.31.769-.47 1.177-.16.408-.26.705-.36.879-.08.204-.16.408-.21.594-.06.234-.05.387.02.505.05.089.02.581-.1 1.399-.26 1.333.02 3.46.83 6.428.32 1.237.77 2.358 1.33 3.335.79 1.162 1.84 1.895 3.14 2.292 1.39.223 2.41.146 3.03-.213Zm11.8-18.731c-.03.017-.04-.013-.06-.043a.678.678 0 0 1-.05-.364c.01-.322.05-.462.11-.496.03-.018.03-.018.06.042.03.059.06.241.06.517-.06.233-.09.326-.12.344Zm-6.24 9.685-.45-.218-.17-.296c-.05-.089-.04-.136.05-.187l.06-.034c.17.02.32.134.44.341.12.207.15.343.07.394Zm-6.86 4.393-.24.137c-.23.136-.52-.091-.88-.713-.58-1.006-.94-2.302-1.08-3.84-.11-1.356.01-2.65.29-3.876.22-.794.48-1.499.83-2.056.35-.557.66-.898.99-1.086.21-.119.33-.111.42.037.05.089.16.618.29 1.605.24 1.915.32 3.212.22 3.861l-.03.369c-.02 1.595-.14 3.041-.4 4.297-.15.759-.28 1.15-.41 1.265Zm5.93-5.593c-.09.051-.26-.168-.52-.612l-.46-.876c-.12-.207-.22-.385-.34-.516-.11-.13-.18-.249-.23-.338-.17-.296-.16-.542.07-.755.06-.034.08-.204.02-.521-.08-.547-.04-.962.07-1.306.05-.064.05-.263.02-.522a4.027 4.027 0 0 1-.02-.856c.05-.187.08-.48.09-.802-.03-.182-.09-.423-.15-.665a2.07 2.07 0 0 1-.05-.64l.21-.717.24.062c.11.055.22.11.25.169.05.089.02.305-.03.691-.15.912-.19 2.201-.09 3.88.08 1.174.23 2.114.49 2.834.39.956.54 1.422.43 1.49Zm5.37 3.368a.702.702 0 0 1-.4.116c-.1-.025-.16-.067-.18-.097 0 0-.01-.029-.03-.059-.03-.059.04-.14.15-.285.21-.119.38-.099.5.108.02.106-.02.17-.04.217Zm-14.3-1.132c-.05-.013-.1-.025-.13-.084-.17-.296-.24-1.089-.25-2.42-.02-1.607.16-2.583.5-2.893l.02-.018c.04.06.02.505-.04 1.366-.07 1.781-.1 2.9-.04 3.264.04.411.02.657-.06.785Zm16.72-14.234c-.02-.78-.02-.78 0 0Zm9.68 10.275c.25-.183.47-.349.67-.545.4-.621.72-1.284 1.01-2.082.22-.641.51-1.24.83-1.78.3-.57.49-.994.57-1.275.08-.326.1-.572.1-.772-.01-.228.03-.492.17-.806.49-1.193.87-2.319 1.05-3.371.15-.636.35-1.307.54-2.007-.02-.03.03-.217.15-.561.09-.327.23-.764.36-1.231.13-.513.26-.98.35-1.43.12-.42.14-.713.15-.836-.01-.152-.01-.229-.03-.258-.02-.03-.06-.042-.09-.025-.22.166-.45.655-.74 1.529-.21.718-.46 1.528-.72 2.433-.87 3.221-1.5 4.928-1.9 5.197-.03.017-.07.005-.09-.025-.02-.029-.01-.152.01-.322.37-1.952.9-3.837 1.57-5.684.62-1.66.99-2.938 1.19-3.761.11-.344.16-.531.11-.62 0-.076-.1-.254-.29-.579-.17-.496-.09-.975.2-1.421.28-.476.4-.744.35-.833-.02-.03-.08-.072-.2-.08-.08.005-.15.01-.2-.003-.09-.025-.14-.037-.16-.067-.14-.237-.2-.555-.15-.941l.02-.521c-.01-.153-.02-.305-.09-.424-.03-.059-.13-.084-.19-.05-.1.098-.22.29-.35.557-.28.599-.43.96-.45 1.13-.73 2.356-1.21 3.978-1.5 4.852a83.27 83.27 0 0 1-4.23 9.825c-.53.935-1.13 1.599-1.84 2.086-.51.337-1 .382-1.44.163-.13-.16-.25-.291-.33-.439-.12-.208-.22-.584-.36-1.097-.3-1.33-.52-2.465-.61-3.44-.09-.974.03-2.145.36-3.558.56-1.55 1.66-2.458 3.24-2.783.53-.46.73-.855.66-1.249-.06-.394-.11-.606-.16-.695-.29-.503-.7-.938-1.29-1.27-.74-.476-1.41-.681-2.04-.597-.66-.129-1.43.04-2.39.511-.9.483-1.7 1.419-2.37 2.867-.51 1.164-.78 2.467-.79 3.892-.02 2.895.3 4.959.88 6.164.62 1.218.98 1.916 1.07 2.064 1.16 2.013 2.94 3.591 5.36 4.64 1.43.481 2.79.322 4.03-.472Zm-.52-1.24c-.21.044-.28.048-.3.019-.02-.03.01-.047.08-.128.16-.132.23-.289.19-.425-.01-.152-.01-.228.05-.263.43-.409.93-1.326 1.49-2.753l.58-1.521c.22-.565.42-.913.57-.999.11-.068.21-.043.28.075.17.296-.18 1.328-1.09 3.037-.78 1.517-1.4 2.503-1.85 2.958Zm11.94-1.681c.16-.055-.19-.876-1.05-2.433a16.388 16.388 0 0 1-1.29-3.398l-.3-.932c-.29-.901-.38-1.401-.31-1.482l.14-.115c.14-.086.7-.012 1.63.238 1.54.413 3.13.762 4.83 1.043 2.2.389 3.99.143 5.44-.694.71-.41 1.37-1.108 1.91-2.09l.91-1.632c.27-.552.38-.85.33-.938-.02-.03-.05-.013-.11.021-.29.171-.57.448-.83.877-.4.744-1.22 1.451-2.37 2.118-.24.137-.4.192-.42.163-.01-.076.12-.268.41-.591l1.23-1.346c1.18-1.51 1.99-3.472 2.38-5.869.39-2.397.63-4.586.72-6.613-.01-.352.03-.691.07-1.03.18-1.129.18-2.231-.09-3.302a4.92 4.92 0 0 1-.18-1.276c.11-.42.07-.831-.13-1.186-.05-.089-.12-.131-.18-.097-.15.086-.37 1.002-.68 2.721l-.5 2.618c-1.11 5.732-2.29 9.693-3.62 11.916-.38.422-.79.737-1.24.993-1.06.616-2.23.854-3.52.733-1.37-.041-2.16-.254-2.4-.668-.21-.355-.13-.911.17-1.68l.88-2.242c.67-1.648 1.15-2.595 1.44-2.766l.08-.005c.02.03.02.03 0 .076a.638.638 0 0 1-.08.204l.23-.289c-.06.31-.13.59-.22.84a91.7 91.7 0 0 0-.84 2.853c.51-.062 1.08-1.137 1.73-3.213.66-2.076 1.03-3.629 1.16-4.694l.07-.556c.08-.479.16-1.035.18-1.603.05-.539-.18-1.076-.67-1.582-.5-.46-1.1-.746-1.75-.845-.42-.036-.74.029-.97.166-.27.153-.51.413-.74.779-.3.569-.71 2.11-1.25 4.592-.46 2.355-1.35 4.844-2.68 7.465-.5 1.118-.95 1.773-1.3 1.978-.12.068-.17.055-.22-.033-.14-.237-.16-.695-.07-1.344.11-.573.12-.895.07-.984-.05-.089-.16-.067-.35.006-.03.017-.06.034-.08.005l.34-.235c.37-.252.49-.443.47-.549-.05-.089-.07-.119-.04-.136 0 0 .06.043.18.097.08.072.15.067.24.016.09-.051.1-.098.03-.216a.289.289 0 0 0-.11-.131c-.03-.059-.08-.072-.12-.131-.17-.296-.06-1.619.3-3.923.25-1.561.38-2.427.4-2.596.07-.357.14-.713.27-1.104.12-.344.14-.713.06-1.06-.09-.301-.09-.5.09-.602.18-.226.33-.863.45-1.957.05-.386.02-.644-.07-.792-.08-.148-.06-.242.09-.327.19-.226.29-.798.33-1.689.02-.369.02-.721-.05-1.038-.05-.289-.03-.458.07-.556.12-.068.16-.132.13-.191-.02-.03-.06-.043-.11-.055-.06-.042-.13-.084-.16-.144-.07-.118-.02-.228.1-.297a.525.525 0 0 1 .2-.073c.09.025.12.008.18-.026.09-.051.11-.145.03-.293-.06-.165-.07-.593.03-1.242.05-.662.1-1.399.11-2.197-.01-.78.04-1.242.09-1.352.09-.052.08-.48.05-1.29-.07-.792-.07-1.42-.01-1.852.06-.386.05-.662 0-.75l-.01-.03c-.07-.118-.05-.212.08-.327.07-.157.08-.28.01-.398l-.03-.06c-.11-.177-.1-.3-.01-.351.09-.052.08-.204-.01-.505-.08-.195-.13-.758-.18-1.674-.01-.627-.05-1.114-.21-1.457a1.193 1.193 0 0 1-.07-.394c.01-.246-.06-.517-.2-.754-.27-.473-.71-.891-1.27-1.24-.3-.181-.5-.384-.58-.532a.971.971 0 0 0-.38-.376c-1.14-.605-2.3-.566-3.45.1-.56.325-1.05.92-1.49 1.728-.95 1.696-1.38 2.809-1.3 3.355.1.178.1.453-.01.874-.05.186-.1.297-.14.36-.22.243-.4 1.647-.52 4.166a27.3 27.3 0 0 0 .08 4.375c.05 2.891.16 4.921.29 6.108l.28 2.203c.12 1.356.76 5.682 1.9 12.994.12.882.15 1.416.13 1.585-.04.14-.01.322.07.47l.04.06c.06.118.15.465.29 1.13.07.594.14.988.26 1.195l.08.071c.07.119.08.271.1.454.22 1.334.59 2.659 1.07 3.963.15.466.33.914.55 1.299.41.711.89 1.264 1.37 1.618.69.586 1.49 1.074 2.35 1.482.9.39 1.44.51 1.71.357l.06-.035Zm-2.77-46.431a1.409 1.409 0 0 1-.14-.513.309.309 0 0 1-.03-.182c.02-.046.02-.046.03-.093l-.02-.03.11.055c.09.148.1.3.11.453 0 .153-.02.246-.06.31Zm-3.29 18.16-.03.017c-.06.034-.12-.008-.19-.127-.07-.118-.1-.3-.08-.546.08-.204.07-.357-.02-.505-.1-.177-.18-.524-.23-1.088-.01-.428-.09-.699-.16-.818l-.05-.088c-.07-.119-.04-.687.08-1.705.06-.509.06-.785.03-.844-.12-.207-.08-1.848.1-5.028.06-1.26.29-3.05.67-5.4.27-1.027.53-1.61.79-1.763.06-.034.11-.022.13.008.1.177.17.571.18 1.199l-.02.521c.02.03.02.03-.01.047-.03 2.069-.01 3.125.02 3.184.09.148.1.3.05.487s-.19 2.002-.4 5.399c-.06.784-.08 1.429-.08 1.904-.07.907-.18 1.879-.35 2.96-.18 1.328-.35 2.058-.43 2.186Zm-2.92-9.09c-.06.035-.11.022-.14-.037-.02-.03-.04-.06-.02-.106l.03-.14c.02-.047 0-.076.03-.093.03-.018.09.025.14.113.07.119.05.212-.04.263Zm.01 4.456c-.03.017-.08.005-.11-.055-.08-.194-.14-.91-.13-2.136-.02-1.254.02-1.87.11-1.92.03-.018.03-.018.05.012.03.059.07.195.11.406 0 .2.06.365.1.5.03.136.06.242.07.271.04.059.03.458 0 1.225-.03.768-.08 1.23-.1 1.4-.02.17-.07.28-.1.297Zm.19 3.556c-.03.017-.03.017-.04-.012-.12-.208-.14-.788-.11-1.755.03-.369.05-.539.08-.556l.01.03c.11.177.16.817.15 1.89.01.229-.03.369-.09.403Zm1.15.483c-.03.017-.08.004-.11-.055l-.04-.136c-.05-.165-.11-.33-.18-.448-.07-.118-.07-.195.02-.246.09-.051.18.05.3.257.06.089.11.178.13.284.02.106-.02.169-.03.216-.05.064-.06.111-.09.128Zm.14.788-.09.051c-.09.051-.13.039-.24-.016-.07-.118-.02-.229.13-.314.15-.086.25-.107.3-.019.07.119.05.212-.1.298Zm-.84 1.275-.03.017c-.06.034-.1-.025-.19-.126-.23-.385-.27-1.148-.15-2.242l.04.012c.02.03.03.106.06.165 0 .077.07.195.15.39.12.483.2.906.16 1.246.01.351-.01.521-.04.538Zm.9.467c-.03.017-.08.004-.15-.114-.17-.296-.16-.495-.02-.581.03-.017.08-.004.1.025.02.03.05.089.07.195.02.106 0 .199.02.305.02.106.01.153-.02.17Zm-.65 1.003-.05.034c-.18.103-.31.095-.42-.036-.09-.148-.05-.288.1-.374.24-.136.41-.116.51.062.05.089.03.182-.14.314Zm3.59 6.89c-.03.017-.08.005-.11-.054-.12-.208-.17-.572-.18-1.123.01-.199.03-.369.1-.45.07-.081.23-.963.48-2.647.18-1.205.49-3.123.96-5.8.36-2.181.63-4.158.76-5.926.08-.755.07-1.183.04-1.289-.06-.118-.04-.763.05-1.963.1-1.2.13-1.968.13-2.32-.04-.334-.03-.733-.01-1.178.01-.445-.02-.704-.05-.763l-.03-.06c-.07-.118-.08-.194-.01-.275.09-.051.14-.514.12-1.37l-.09-1.725c-.08-.547-.09-.852.05-.937l.08-.005c.14.038.27.122.3.181.07.119.05.288-.01.522-.07.233-.07.356-.04.415.23.538.36 1.173.41 1.936.02.382-.01.674-.07.908-.12.068-.11.42-.03 1.043.11.605.14 1.063.05 1.39-.12 1.493-.16 2.307-.1 2.425l.23.262c.04.06.01.077-.02.094l-.12.068c-.12.068-.17.255-.12.543.07.318.06.517-.02.645-.03.017-.03.017-.01.046.05.089.11.131.23.139.14.038.21.08.22.109l.02.03-.06.034-.26.154c-.21.12-.32.341-.29.675.02.78-.15 2.536-.57 5.302-.16 1.158-.19 1.773-.14 1.862.05.089.02.182-.06.31-.15.085-.27.552-.39 1.447-.16.883-.18 1.404-.07 1.582.05.089-.01.199-.15.361-.16.132-.36.955-.63 2.457-.32 1.918-.5 2.894-.59 2.945Zm-3.07-3.674c-.06.034-.11.021-.16-.068-.02-.029-.03-.059-.07-.118 0-.076-.04-.135-.04-.212.01-.046 0-.076.03-.093.05-.034.14.037.22.185.09.148.11.254.02.306Zm4.1 16.736c-.03.017-.13-.008-.21-.08-.13-.237-.23-.613-.34-1.143-.09-.5-.2-.953-.35-1.296-.16-.266-.34-.99-.57-2.202l-.23-1.287c-.13-.712-.23-1.089-.26-1.148-.09-.148-.12-.33-.07-.593.06-.234.13-.391.19-.425.03-.017.13.084.25.291.17.296.25.644.29 1.055.01.428.02.657.04.686.11.254.17.572.24.889.02.183.06.318.1.454l.01.076c.04.212.13.436.25.643l.2.279c.05.089.08.148.05.165-.02.017-.05.034-.04.064-.09.174-.06.433.05.763.08.148.13.36.16.618.02.106.05.165.08.271 0 .076.05.165.1.254l.09.148.08.271c-.12.145-.09.327-.05.539.01.428 0 .674-.06.708Zm16.42-19.193c-.04-.013-.06-.043-.09-.102l-.09-.224c-.06-.241-.04-.411.05-.462.02-.017.02-.017.07-.005.02.03.08.072.1.101.08.148.09.301.06.441-.04.14-.07.233-.1.251Zm-.34-4.421c-.03.017-.04-.012-.06-.042a.476.476 0 0 1-.05-.288c.05.089.1.178.09.224l.02.106Zm.23 15.575c.12-.068.27-.353.46-.854.18-.577.23-.963.13-1.141-.07-.118-.18-.173-.33-.088-.18.103-.31.417-.4.943-.14.514-.13.866-.01 1.073.05.089.09.101.15.067Zm.6-2.118c.14-.085.26-.629.31-1.642.03-.844-.01-1.378-.11-1.555-.02-.03-.03-.06-.06-.043-.05-.012-.08.005-.08.005-.09.051-.15.361-.2.946l-.07.832c-.1.725-.1 1.2 0 1.377.05.089.12.131.21.08Z" fill="#535353"/><path d="M1269.84 74.09c-.24-.222-.48-.444-.69-.654-.05-.024-.09-.048-.13-.073-.11-.06-.22-.155-.36-.262a2.502 2.502 0 0 1-.33-.304c-.09-.082-.11-.149-.07-.212.06-.052.05-.085-.02-.122-.06-.036-.14-.052-.25-.092-.12-.04-.27-.07-.42-.156a.943.943 0 0 1-.41-.32c-.06-.09-.21-.176-.38-.274-.2-.089-.45-.235-.69-.457a1.731 1.731 0 0 0-.25-.201c-.06-.037-.12-.095-.17-.098-.06-.036-.17-.097-.26-.18-.12-.094-.25-.255-.45-.486-.06-.058-.15-.14-.29-.247-.13-.106-.26-.18-.39-.286a1.378 1.378 0 0 0-.37-.153c-.09-.028-.14.002-.11.102.01.121-.05.173-.2.142-.14.002-.31-.041-.53-.142-.21-.089-.41-.232-.63-.387-.2-.144-.34-.338-.46-.52a1.653 1.653 0 0 0-.19-.395.335.335 0 0 0-.1-.17c-.03-.045-.03-.045-.04-.024 0 0-.02.02-.01.054-.01.021-.01.076-.03.097.01.033 0 .055-.04.085-.02.02-.04.009-.09.005-.29-.083-.64-.257-1.03-.51-.37-.24-.61-.517-.67-.805-.04-.113-.15-.228-.29-.368-.14-.14-.3-.259-.46-.323-.18-.077-.27-.071-.35.022-.09.094-.28.093-.59-.002a9.514 9.514 0 0 1-1-.377c-.42-.19-.75-.318-.97-.365-.66-.127-1.15-.265-1.44-.382-.3-.116-.51-.293-.64-.508-.1-.225-.21-.57-.3-1.046-.01-.034.04-.064.16-.078.13.018.27.016.41.014.17.01.31.007.45.005.11.006.16-.024.16-.078-.01-.034-.08-.104-.21-.177s-.27-.159-.46-.235c-.19-.11-.35-.208-.5-.293-.17-.098-.24-.168-.27-.213-.27-.913-.27-1.449-.02-1.642.26-.192.62-.182 1.12.023.47.215.98.453 1.49.746.12.073.27.159.38.22 1.26.699 2.53 1.377 3.81 2.034.02.012.07.036.09.048.1.061.22.101.35.175.14.052.26.125.4.177.14.052.23.1.28.104 0-.054-.02-.154-.13-.358a7.445 7.445 0 0 0-.38-.668c-.78-1.239-1.23-2.349-1.43-3.334-.2-.964-.06-2.18.39-3.608.36-.952.74-1.804 1.19-2.499.47-.716.99-1.461 1.59-2.213.08-.093.13-.178.2-.25-1.09-2.21-1.64-4.19-1.68-5.93-.06-1.754.57-3.708 1.81-5.919.02-.021.03-.042.04-.063.25-.478.56-.918.93-1.322a.96.96 0 0 0 .18-.154c.05-.051.09-.115.13-.178a9.517 9.517 0 0 1 1.87-1.736c.21-.163.43-.346.64-.51a9.621 9.621 0 0 1 1.73-1.054 13.27 13.27 0 0 0 1.54-.914c.05-.03.13-.07.2-.142.09-.06.18-.12.29-.168a.43.43 0 0 1 .2-.053c.06.003.23-.008.53-.089.3-.08.65-.19 1.06-.32.07-.017.17-.044.24-.062.24-.083.51-.155.76-.205.29-.06.54-.055.78-.03.04.024.08.015.11.006.07-.017.1-.026.15-.056.07-.04.19-.087.33-.144.14-.036.37-.044.64-.028.29.029.59.003.9-.044.24-.03.54-.055.88-.057 5.55.104 10.16 2.174 13.86 6.258.29.334.52.61.73.842.19.252.31.38.34.392.03-.01.14.14.34.425.18.274.4.626.66 1.003.33.5.64 1.099.96 1.763.29.674.52 1.29.71 1.848.17.579.24.955.2 1.16-.05.085-.05.282-.03.6.01.318.03.67.06 1.054.05.363.06.736.07 1.054 0 .34-.01.557-.05.675s-.06.248-.09.4c0 .142-.02.272.01.372.02.318-.02.775-.09 1.383a9.201 9.201 0 0 1-.42 1.703c-.18.548-.42.916-.7 1.063-.17.1-.25.193-.27.323-.02.13.02.264.04.418.07.179.06.376.02.548-.03.206-.23.402-.59.588-.28.147-.46.3-.51.495-.05.172-.07.357-.06.532.02.121.01.23 0 .34a.611.611 0 0 1-.15.274l-.06.052c-.07.072-.15.165-.24.259a.87.87 0 0 0-.17.296c-.01.076-.08.148-.16.241-.09.094-.21.163-.29.202-.11.048-.23.15-.37.295-.12.157-.24.314-.3.474-.1.17-.19.338-.3.474-.11.136-.18.209-.26.248-.05.05-.1.08-.14.144a.146.146 0 0 0 .01.142c-.01.055-.02.076-.07.106-.04.03-.1.027-.2.02-.15.003-.27.017-.35.111-.1.081-.19.175-.28.29-.09.114-.18.208-.28.344-.37.35-.88.789-1.55 1.307-.66.518-1.24.833-1.72.925-.1-.007-.17.011-.23.062-.06.052-.05.14.01.23.06.092.21.177.43.278.18.077.38.165.58.22.61.212.95.408 1.05.578.04.112-.01.163-.17.187-.15.023-.38-.023-.63-.082-.27-.07-.55-.208-.84-.346-.41-.177-.82-.246-1.23-.172-.38.086-.79.248-1.18.443-.11.081-.15.111-.12.157.04.025.1.061.21.068.1.027.18.076.25.113.08.049.11.094.09.19-.02.022-.06.052-.14.037-.09.005-.18-.022-.29-.029-.2-.055-.43-.08-.73-.11-.27-.016-.56.044-.88.166-.39.174-.71.297-.96.38-.22.097-.55.186-.95.293-.15.057-.26.105-.35.165-.08.04-.14.09-.16.133a.453.453 0 0 1-.17.1c-.04.008-.15.002-.28-.017-.3-.062-.51-.042-.69.024-.15.078-.29.168-.39.25a.612.612 0 0 1-.2.14c-.04.031-.1.028-.17.012-.14-.052-.4-.056-.76-.012-.34.056-.74.109-1.17.17-.62.094-1.11.174-1.49.184-.03.01-.08.006-.14.003-.11-.007-.25-.004-.39-.002a2.198 2.198 0 0 0-.37.01.562.562 0 0 0-.25.084c-.3.08-.64.082-1.07.001a4.456 4.456 0 0 0-1.14-.035c-.17.011-.35.023-.51.013-.17-.01-.28-.016-.4-.002-.1.027-.18.066-.21.13l-.04-.025c-.03-.012-.05-.024-.1-.028a.688.688 0 0 0-.2-.088.768.768 0 0 0-.22-.068c-.36-.065-.69-.118-.99-.18-.69-.085-1.37-.224-2.1-.421-.46-.126-.71-.13-.76-.046-.02.076.09.225.33.447.25.2.52.414.86.664.32.216.61.408.85.576.19.11.28.192.35.228.79.628 1.84 1.49 3.19 2.631a46.753 46.753 0 0 1 3.72 3.56c1.15 1.228 1.9 2.28 2.18 3.15.09.333.13.806.14 1.43-.01.59-.02 1.202-.09 1.81-.07.608-.2 1.071-.31 1.37-.06-.003-.1-.115-.18-.327-.11-.204-.19-.45-.3-.74-.09-.246-.18-.47-.26-.683a2.847 2.847 0 0 0-.23-.474c-.27-.464-.59-.932-.92-1.433-.32-.434-.61-.857-.87-1.288a18.38 18.38 0 0 0-2.89-3.247c-.23-.189-.44-.398-.66-.608Zm5.63 5.588c-.02-.066-.06-.145-.12-.148-.06-.037-.11-.04-.18-.022-.05-.004-.08.039-.08.093.01.033.06.091.16.152.11.061.18.043.22-.075Zm-.86-.718c.18.077.25.059.24-.063-.02-.12-.1-.279-.24-.473a5.491 5.491 0 0 0-.47-.641c-.17-.207-.32-.38-.46-.487-.15-.118-.23-.134-.27-.07 0 .054.05.166.15.336.1.17.25.344.39.538.15.228.31.401.44.562.11.15.19.252.22.298Zm-4.54-5.468c.3.259.53.414.63.475.11.061.12.04.07-.018-.04-.079-.14-.194-.29-.334-.13-.161-.3-.313-.48-.478-.19-.164-.36-.316-.51-.435-.16-.119-.29-.192-.38-.186.01.033.06.09.15.194.08.104.21.21.34.338.11.094.24.222.33.304.07.07.12.128.14.14Zm-7.68-4.661c.15.173.26.234.33.216.07.016.11-.048.08-.148a.369.369 0 0 0-.1-.258.396.396 0 0 0-.31-.095c-.06-.003-.07.018-.08.039-.01.055 0 .088.01.121a.2.2 0 0 0 .06.091c-.01.022.01.034.01.034Zm-1.52-1.218c-.06-.004-.09.005-.07.017.01.034.03.046.09.083.05.024.11.06.16.064.07.037.12.04.18.043.02.012.05.003.04-.03 0 0-.03-.046-.13-.107-.09-.048-.17-.097-.27-.07Zm11.29-.756c.03-.009.06-.017.1.007.08.015.14.019.23.046.18.077.42.102.64.115.48-.004 1.3-.097 2.43-.258 1.14-.162 2.22-.381 3.3-.634 1.07-.286 1.75-.595 2.04-.939-.4-.144-.83-.136-1.28-.032-.46.103-.93.25-1.42.45-.73.285-1.39.464-2.04.512-.14.003-.35.023-.63.061-.27.038-.55.076-.89.132-.53.089-.96.15-1.33.194-.94.075-1.76.135-2.46.126-.69.024-1.52-.004-2.47-.072-.17-.01-.29.005-.42.04-.12.015-.22.042-.25.084-.02.043.01.088.13.128.09.028.32.074.64.115.05.003.11.006.18.022.57.045 1.17.08 1.8.108.63.027 1.18-.05 1.7-.205Zm3.36-3.243c.07-.018.19-.032.33-.035.13.019.25.004.38-.01.12-.015.17-.066.18-.12-.01-.088-.12-.183-.34-.338a.273.273 0 0 1-.12-.095c-.1-.06-.19-.11-.23-.134a.434.434 0 0 0-.11-.094c-.04-.046-.08-.07-.11-.116-.06-.091-.21-.264-.5-.544a1.196 1.196 0 0 0-.42-.299 2.84 2.84 0 0 0-.48-.138c-.2-.056-.36-.12-.48-.193-.11-.061-.16-.173-.15-.337.05-.281 0-.481-.15-.621-.16-.152-.35-.262-.6-.376-.1-.06-.22-.1-.33-.162-.06-.036-.18-.13-.37-.24-.19-.11-.39-.253-.6-.376-.15-.118-.32-.216-.44-.31-.12-.074-.19-.11-.21-.122-.11-.007-.17.044-.18.174-.01.11 0 .23.03.385 0 .088.01.176.01.23 0 .088-.03.097-.09.094a3.047 3.047 0 0 1-.3-.259c-.13-.161-.32-.38-.58-.702-.01-.033-.01-.033-.03-.046-.15-.227-.37-.437-.59-.68a1.291 1.291 0 0 0-.78-.364c.05.057.11.148.2.23.11.116.21.232.33.36.11.115.21.23.28.3.08.104.15.174.16.207.03.046 0 .055-.08.006-.1-.028-.25-.113-.49-.28-.51-.348-.92-.81-1.14-1.393-.12-.237-.24-.419-.34-.589-.11-.149-.23-.243-.28-.246a.32.32 0 0 1-.19-.11c-.06-.037-.1-.116-.12-.182-.08-.158-.2-.286-.36-.405-.17-.097-.31-.15-.42-.156-.14.002-.18.032-.16.132 0 .11.16.262.42.496.14.106.25.2.35.316.1.082.16.174.15.228.01.033-.04.03-.15-.03-.09-.083-.26-.18-.43-.333-.14-.14-.27-.3-.39-.483a3.564 3.564 0 0 0-.38-.471.814.814 0 0 0-.42-.244c-.08-.016-.16.023-.23.096-.03.063-.09.169-.15.308-.06.16-.12.32-.23.51-.14.179-.29.345-.48.486-.31.332-.51.637-.61.915-.07.16-.13.266-.2.338-.06.106-.16.133-.27.126-.14.002-.27.18-.4.5-.13.321-.25.675-.32 1.032-.07.378-.09.65-.03.796.02.1.05.2.05.343-.01.272.1.618.27 1.055.2.428.71.918 1.48 1.478l.64.366c2.03.779 3.95 1.123 5.74 1.034 1.78-.1 3.63-.416 5.46-.908Zm-2.64-2.51a1.292 1.292 0 0 1-.61-.3 1.51 1.51 0 0 1-.37-.492c-.05-.145 0-.23.12-.244.15-.024.4.09.79.342.12.073.24.168.33.25.12.094.14.194.13.27-.01.109-.14.145-.39.174Zm-1.76-1.298c.04-.063.11-.081.17-.045.06.037.1.116.16.207.04.079.05.167.02.21-.02.041-.11.047-.24-.026a.282.282 0 0 1-.11-.149.65.65 0 0 1 0-.197Zm-4.11-2.598c-.12-.182-.16-.295-.15-.316-.01-.033.07-.018.19.055.08.016.15.086.22.156.06.091.11.149.13.215.02.21.01.285-.07.27-.07-.016-.2-.144-.32-.38Zm-3.08-1.355c.12-.157.15-.254.09-.345-.06-.091-.16-.12-.29-.138a.371.371 0 0 0-.34.11c-.1.082-.14.233-.08.433.02.1.08.158.16.153.08.015.16-.024.24-.063.09-.06.17-.1.22-.15Zm11.49 5.59c-.55-.264-.86-.359-.93-.286-.07.072.03.242.28.497.24.256.58.506.99.771.4.232.83.422 1.23.511.2.034.31.04.3-.047-.01-.067-.07-.158-.22-.298-.12-.127-.3-.258-.47-.41-.2-.144-.35-.263-.5-.348-.14-.107-.22-.155-.22-.155l-.46-.236Zm6.06 3.076c-.16.044-.22.15-.15.275.03.133.14.194.28.246.15.031.31-.014.48-.2.06-.106.06-.16-.02-.21-.07-.07-.17-.097-.3-.116a1.113 1.113 0 0 0-.29.005Zm-11.45-6.135c-.13-.128-.21-.176-.23-.134-.04.009-.05.084-.03.184.03.1.07.18.16.262.1.082.19.11.34.107a.365.365 0 0 0-.08-.212c-.03-.046-.07-.125-.12-.183l-.04-.024Zm19.86-18.332c-.68-.588-1.63-1.28-2.87-2.02-1.25-.754-2.3-1.243-3.14-1.447-.18-.022-.35-.032-.45-.038a3.2 3.2 0 0 1-.85-.15c-1.86-.68-3.77-.882-5.7-.582-.34.056-.66.124-.97.226l-.13.036c-.34.089-.7.133-1.13.14-.3.026-.57.064-.83.08-.28.039-.49.114-.63.204-.43.259-.9.493-1.42.702-.56.24-1.13.534-1.71.87-.27.16-.49.31-.74.449-.62.345-1.24.779-1.86 1.266a1.12 1.12 0 0 1-.29.202c-.12.07-.22.096-.32.123-.1.026-.14.002-.14-.052-.02-.067.05-.194.19-.372.11-.19.18-.317.21-.414.03-.063.06-.106.08-.148.01-.021.08-.039.14-.036.06-.018.16.01.29.029.07.015.11.006.14-.002.03-.01.07-.018.08-.04a.223.223 0 0 1 .04-.063c-.01-.033.01-.076.02-.097.03-.042.06-.051.13-.069a.904.904 0 0 1 .23-.008c.05.003.14-.09.24-.226.14-.233.33-.428.61-.663.4-.25.79-.445 1.18-.619.38-.174.75-.381 1.16-.597 1.15-.577 2.22-.917 3.16-.992a9.195 9.195 0 0 0 1.94-.43c.35-.11.51-.243.52-.352-.02-.121-.1-.225-.3-.313a1.387 1.387 0 0 0-.6-.179.945.945 0 0 0-.3-.028c-.07-.016-.16-.01-.27-.017-.17.045-.26.105-.25.193-.02.076.01.176.08.3-.31-.15-.54-.23-.71-.24-.17.012-.29.06-.36.133a.37.37 0 0 0-.16.241.66.66 0 0 1-.13.178c-.05.03-.11-.006-.23-.1-.16-.12-.25-.202-.3-.26l-.06-.036.02.012c.01.033.04.079.07.124.01.067.03.134.02.21.01.066-.02.13-.09.202-.09.06-.21.108-.39.14-.28.039-.48.038-.66.016-.15-.031-.29-.083-.37-.099-.04-.024-.08-.049-.09-.027-.02-.013-.04.008-.04.063.01.033.02.121.06.233l.01.034c.02.121.02.209-.02.239a.265.265 0 0 1-.19.032c-.08-.015-.17-.043-.27-.07-.08-.016-.17-.044-.25-.06-.05-.002-.11-.006-.13.037-.11.244-.22.38-.33.428a.651.651 0 0 1-.3.08.246.246 0 0 0-.19.033c-.07.018-.12.102-.14.233-.01.02-.05.05-.09.06-.04.03-.13.036-.2.053-.25-.004-.54.11-.9.296-.12.103-.2.196-.3.277-.11.136-.22.239-.36.329-.1.081-.28.147-.45.192-.03.009-.07.018-.09.06-.01.021-.04.063-.06.106a.679.679 0 0 1-.15.253c-.07.127-.23.205-.43.313-.21.108-.49.31-.86.66-.37.35-.74.732-1.1 1.17-.37.437-.65.836-.85 1.174-.21.36-.24.62-.12.747.06.037.21-.02.37-.152.15-.166.34-.341.49-.562.18-.208.31-.386.41-.5l.04-.085c.1-.115.17-.241.22-.38.07-.16.16-.275.23-.348.09-.06.22-.041.4.09.12.094.13.215.04.33-.11.136-.25.28-.41.413-.14.145-.26.247-.36.383-.22.272-.4.501-.56.667-.26.302-.47.573-.63.848-.18.263-.39.677-.63 1.242-.33.822-.57 1.814-.68 2.934-.11 1.12.03 2.102.39 2.933.18.328.42.408.67.27.26-.16.52-.373.78-.675.15-.166.31-.299.45-.443.57-.437 1.4-1 2.51-1.71 1.14-.697 2.27-1.197 3.38-1.513 1.14-.304 2.01-.11 2.58.614l.03.045c.14.304.18.613.15.96-.05.337-.01.755.14 1.234.12.325.11.543-.03.633-.14.09-.35.165-.66.212-.14.002-.29.06-.44.083-.89.22-1.6.429-2.12.693-.52.264-1.13.643-1.89 1.166-.26.16-.46.268-.6.27-.07.018-.15.057-.22.075-.05.051-.09.115-.14.2 0 .054-.05.084-.06.105-.02-.012-.05-.003-.09.006-.04-.025-.07-.016-.11-.007-.06.018-.09.06-.13.09-.06.051-.09.148-.16.275-.04.118-.11.19-.26.247-.12.07-.26.105-.4.162a1.18 1.18 0 0 0-.63.258c-.14.144-.13.429.06.824.45.595 1.25 1.31 2.41 2.124 1.17.814 2.36 1.585 3.59 2.326 1.27.733 2.27 1.252 3.01 1.625.22.1.53.25.9.437.57.296 1.15.605 1.76.87.6.267 1.07.393 1.37.4 2.08-.323 4.45-1.69 7.08-4.113 2.62-2.436 4.5-5.298 5.58-8.59 1.1-3.315.38-6.41-2.18-9.298Zm-15.09-5.215c.11-.048.18-.066.21-.02.03.045.03.1.01.175a.261.261 0 0 1-.12.157c-.04.03-.11-.007-.18-.077a.124.124 0 0 1 0-.142c.02-.042.06-.051.08-.093Zm13.53 25.345c-.62.576-1.14 1.004-1.58 1.317-.42.292-.89.614-1.37.902-.31.21-.71.46-1.17.761-.37.262-.55.416-.45.498.07.07.28.05.61-.04.33-.09.67-.233 1.02-.453.74-.448 1.36-.88 1.84-1.278.51-.386 1.04-.922 1.63-1.544.03-.009.04-.03.1-.08.1-.082.22-.185.35-.308.12-.124.2-.25.26-.356.06-.106.02-.185-.11-.204-.11-.006-.22.042-.37.153l-.45.334c-.13.124-.24.226-.31.298Zm-25.54-12.744c.08.049.14.052.16.01a.228.228 0 0 0 .02-.185c-.02-.1-.04-.166-.08-.19-.05-.059-.1-.029-.14.035-.03.063-.06.106-.04.172.03.046.05.112.08.158Zm.96-4.547c-.15.254-.29.595-.43.991-.15.396-.26.784-.35 1.15-.09.399-.16.701-.19.907-.03.206 0 .251.07.124l.21-.468c.14-.287.27-.607.41-1.003.17-.384.29-.738.41-1.092.13-.32.17-.547.17-.69 0-.142-.1-.115-.3.081Zm28.21 13.244c.08-.181.14-.287.13-.32-.01-.034-.04-.025-.11.047-.08.04-.16.133-.26.247l-.24.281a1.04 1.04 0 0 0-.13.178c-.04.01-.12.157-.28.378-.17.241-.38.513-.6.839-.21.326-.38.622-.56.884-.16.275-.24.457-.23.544 0 .088.14-.002.42-.237.3-.277.58-.676.89-1.15.28-.486.52-.909.75-1.31-.01-.034.01-.055.02-.076.02-.042.05-.085.08-.148.05-.03.09-.094.12-.157Zm-29.21-13.566c.01-.164-.01-.264-.07-.322-.04-.024-.13-.019-.2.054-.07.039-.12.123-.15.22-.02.13.01.23.1.367.05.058.09.082.15.031.04-.03.08-.093.1-.17.03-.063.05-.138.07-.18Zm1.19-2.357c.06-.194.09-.29.07-.303 0 0-.1.06-.22.184-.35.362-.41.555-.17.526.06.004.12-.048.19-.12.05-.085.09-.17.13-.287Zm.92-1.335c-.04.118-.05.173-.04.206.01.034.04.025.07-.018.03-.009.07-.072.09-.114.04-.064.05-.14.06-.194 0-.054-.01-.088-.05-.112-.03.009-.03.009-.05.03l-.04.085c-.02.02-.03.042-.04.063-.01.021 0 .054 0 .054Zm1.93-1.59c.29-.168.4-.304.36-.383-.01-.088-.14-.106-.32-.074-.21.02-.42.128-.61.27-.21.163-.36.383-.42.685-.03.043-.05.085-.1.115-.07.018-.12.07-.19.087-.09.06-.17.1-.23.15-.03.064-.02.13.06.2.07.07.17.044.27-.038.12-.102.25-.226.39-.37.19-.196.38-.371.53-.483l.26-.159Zm2.14-1.271a.527.527 0 0 0 .34-.199c.13-.123.3-.222.54-.34.79-.356 1.2-.66 1.22-.9.03-.238-.26-.234-.82.006-.35.165-.64.333-.98.532-.16.078-.3.168-.46.246-.01.021-.04.03-.04.03-.19.087-.35.165-.5.276-.14.09-.26.214-.36.383-.01.022-.05.03-.08.04-.03.008-.07.017-.1.026-.07.018-.12.015-.19.033a.208.208 0 0 0-.14.144c-.05.085-.05.194-.03.349.01.175.1.224.24.167.14-.09.31-.19.52-.352.14-.111.29-.223.43-.313.17-.1.28-.147.41-.128Zm6.49-2.881c-.06-.004-.17-.01-.36.022-.19 0-.41.04-.66.07-.24.03-.46.07-.65.103-.21.02-.34.056-.39.053-.5.134-.95.271-1.35.433-.43.15-.7.275-.87.374-.17.1-.1.136.17.098.26-.017.82-.148 1.69-.38.03-.009.2-.054.45-.104.26-.05.53-.143.86-.211.31-.102.57-.173.82-.257.21-.075.32-.156.29-.201Zm1.92 1.592c.19.219.37.35.5.402.16.03.28.016.33-.068.07-.073.07-.182-.02-.319-.07-.124-.26-.234-.54-.371-.2-.056-.31-.062-.34.001-.03.097 0 .197.07.355Zm2.26.682c.08.016.12-.014.12-.102a.963.963 0 0 0-.13-.325 1.73 1.73 0 0 0-.26-.377c-.08-.103-.15-.173-.23-.188-.04-.025-.08.039-.05.193.02.155.08.3.19.45.12.127.22.242.36.35Zm1.04-.528c-.02-.121-.1-.225-.21-.32a1.984 1.984 0 0 0-.37-.152c-.13-.019-.19-.001-.23.062-.02.043.05.167.23.332.08.07.18.13.28.158.1.061.2.034.3-.08Zm1.25.523c-.24-.134-.4-.198-.47-.214-.08-.015-.1.027-.06.106.04.079.11.149.19.252.11.094.21.177.3.259.07.07.15.085.18.076.08-.039.13-.123.08-.236-.02-.1-.12-.182-.22-.243Zm1.33.627c-.07.018-.1.027-.08.039.01.033.03.045.09.082a.43.43 0 0 0 .16.064c.06.037.12.04.17.044.04-.01.06.003.05-.03.01-.022-.05-.058-.12-.128a.525.525 0 0 0-.27-.071Zm-19.15 33.994c.09-.06.18-.066.32-.014.13.02.23.08.34.141.07.07.12.128.1.17-.02.076-.13.07-.37.044a.62.62 0 0 1-.29-.083.215.215 0 0 1-.1-.258Zm24.85 2.564c.34.195.77.33 1.32.396 1.55-.093 2.95-.38 4.23-.883.8-.303 1.3-.437 1.44-.439-.13.463-.26.98-.37 1.564l-.03.097c-.12 1.086.15 1.999.83 2.762.79.146 1.85.023 3.13-.392.48-.091.94-.162 1.35-.181.56-.043 1.29-.186 2.2-.448.38-.12.65-.245.85-.387-.41-.123-.83-.082-1.26.122-.31.156-.67.233-1.05.21-.4-.035-.81-.016-1.23.025-.43.062-.77.063-.98.05.14-.145.89-.384 2.24-.708 1.76-.364 2.79-.587 3.07-.68.29-.059.83-.277 1.7-.652.74-.306 1.15-.522 1.22-.649.02-.042.04-.063-.01-.088-.08-.048-.23-.08-.44-.06-.19.033-.42.041-.67-.017.24-.172.65-.334 1.23-.506a8.456 8.456 0 0 0 1.78-.801l-.02-.012c-.23-.135-.75-.067-1.53.214-.85.157-1.72.334-2.59.533-1.97.528-4 .964-6.05 1.3-.37.044-.63.006-.8-.091-.22-.156-.2-.428.04-.797l.13-.178c.2-.053.34-.144.42-.237a.578.578 0 0 0 .08-.181c.03-.064.08-.148.13-.233.18-.263.45-.477.81-.575l.21-.108c.04-.03.04-.085.04-.118-.02-.209-.01-.372.08-.487.15-.254.5-.473 1-.662.26-.105.48-.2.63-.312.25-.226.55-.415.84-.563.3-.134.49-.276.58-.424.11-.136.07-.324-.07-.518a.63.63 0 0 1 .08-.433c.11-.136.23-.292.37-.492l-.13-.073c-.08-.049-.14-.194-.15-.425.04-.545-.14-.927-.52-1.147-.19-.11-.41-.123-.68-.084-.26.05-1.37.617-3.33 1.66-.48.255-1.08.558-1.79.909l-.39.228c-1.69.883-3.18 1.461-4.43 1.725-1.08.253-1.8.286-2.16.078-.22-.155-.18-.416.07-.805.37-.601 1.26-1.412 2.67-2.432.95-.72 1.86-1.321 2.69-1.775.92-.513 1.42-.844 1.49-.971.04-.064.02-.13-.07-.212-.09-.05-.25-.114-.43-.19.06-.16.14-.342.25-.477a2.937 2.937 0 0 0-.13-.555c-.24-.561-.51-.938-.76-1.084-.21-.123-.52-.13-.9-.044-1.18.564-2.62 1.593-4.31 3.067-1 .804-1.83 1.706-2.45 2.675-.93 1.41-.97 3.19-.08 5.365.12.237.33.447.61.606Zm1.96-.56c-.09-.05-.12-.095-.08-.159.06-.05.1-.081.19-.087.25.059.67.019 1.24-.1.62-.094.95-.13 1.01-.093-.03.064-.47.18-1.29.382-.62.095-.97.117-1.07.056Zm2.79-.533-.03-.013.03-.097c.03-.042.13-.069.28-.092l.01-.021.02.012c.26-.105.42-.128.46-.104-.01.021-.06.051-.1.081-.08.04-.15.057-.23.096-.1.027-.24.084-.44.138Zm10.92 10.368c.07.037.26.147.59.309.33.162 1.03.204 2.13.16.5-.024 1.24-.1 2.23-.238.58-.085 1.03-.189 1.38-.3.32-.122.56-.185.71-.208.15-.003.33-.035.55-.077.13.02.53-.088 1.26-.318.25-.084.39-.14.43-.204-.03-.046-.18-.043-.4-.002a41.49 41.49 0 0 1-7.17.368c-.02-.012-.06-.003-.11-.006-.06-.004-.13-.02-.21-.035-.05-.003-.13-.018-.16-.064-.04-.024-.05-.058-.01-.121.14-.145.42-.237.91-.263 1.01-.092 1.7-.062 2.08.104.23.046.49.029.81-.073.16-.044.3-.08.43-.061 2.73-.197 5.49-.72 8.32-1.568 1.1-.35 1.7-.598 1.78-.746-.04-.025-.61.073-1.66.283l-.79.16c.17-.1 1.27-.503 3.3-1.19.76-.24 1.18-.422 1.23-.507.01-.02.01-.02-.01-.033-.09-.049-.78.084-2.12.442-2.56.721-5.2 1.197-7.94 1.448-1.44.1-2.81.094-4.14-.106-.72-.11-1.33-.321-1.79-.61a2.022 2.022 0 0 1-.74-.855l-.07-.124c-.11-.204-.11-.346-.06-.43.02-.043.08-.094.15-.167.09-.06.17-.153.24-.28.08-.127.14-.287.18-.405.07-.127.11-.245.18-.35.11-.19.25-.248.39-.141l.09.082c.02.012.06.003.07-.018 0 0 .02-.042.03-.097 0-.054.02-.096.03-.15 0-.055.02-.098.05-.14.3-.529.6-.697.88-.505l.32.238c.5.347 1.34.55 2.47.64.22.014.61-.018 1.14-.073 1.14-.107 1.79-.122 1.94-.037l-.01.021c-.13.233-.76.382-1.88.468-.83.08-1.52.105-2.13.09a3.04 3.04 0 0 0-.65-.148l-.11-.007a.566.566 0 0 0-.23-.046c-.09-.028-.16-.01-.19.032-.01.021.01.088.08.158.14.161.21.319.17.437 0 .109.02.209.15.282.06.037.17.098.31.15 1 .322 2.43.277 4.23-.15.98-.227 1.63-.669 2-1.324.07-.106.07-.16.01-.197-.05-.025-.2-.001-.49.058-.35.11-.55.13-.61.073l-.07-.07c.11-.136.3-.277.57-.403.35-.165.56-.328.64-.476.08-.126.08-.236.01-.393-.11-.116-.1-.28.03-.49.06-.215.19-.427.32-.66.05-.193.04-.457-.11-.793-.23-.528-.61-.945-1.07-1.268-.89-.6-1.86-.932-2.9-.973-1.78.101-3.5.633-5.15 1.594-1.11.656-2.08 1.505-2.94 2.592a5.286 5.286 0 0 0-.78 1.408c-.13.32-.16.756-.13 1.337.03.44.03.779-.01 1.093-.03.294 0 .59.03.888.04.309.21.658.47 1.089.53.929 1.04 1.561 1.52 1.896Zm4.66-8.164c-.13-.107-.19-.198-.13-.304.03-.063.14-.144.28-.201.4-.195.9-.33 1.5-.402.85-.103 1.5-.009 1.92.29.23.134.3.313.2.482-.18.317-.66.518-1.49.578-1.01.038-1.77-.096-2.28-.443Zm-2.23 1.955c.27.18.49.28.67.303.19.022.29-.005.31-.047.05-.085-.02-.155-.16-.261a3.86 3.86 0 0 0-.45-.236c-.1-.027-.2 0-.31-.007-.12.015-.18.066-.2.108-.01.021.02.067.14.14Zm6.91 12.644c.96.44 2.05.702 3.28.765.72.022 1.15.014 1.29-.043.1-.06.22-.074.35-.056.15.031.41.014.8-.072 0 0 .01-.02.03-.009.46-.104.72-.175.82-.202.35-.11.72-.46 1.13-1.016l.31-.55c.55-1.093.55-2.11 0-3.073a12.078 12.078 0 0 0-1.57-2.118c-.02-.012-.04-.024-.05-.057 0 0-.15-.173-.43-.475-.5-.544-.7-.884-.59-1.02.02-.042.09-.06.18-.066.07.016.15-.023.21-.129 1.8-.964 3.46-1.105 5.02-.398.49.28.89.621 1.17 1.01.18.274.35.46.53.536.21.088.4.001.61-.27.62-.882.93-1.804.95-2.81.01-.753-.32-1.397-1-1.93l-.07-.036c-1.22-.566-2.62-.727-4.22-.495-1.59.211-3.06.605-4.4 1.18-.34.286-.56.525-.72.745-.4.555-.74 1.29-.99 2.215-.09.345-.15.593-.15.79-.01.218.14.533.47 1.001.63 1.045 1.18 1.701 1.6 2 .12.04.25.2.38.471.07.267.19.449.35.568.15.085.23.276.24.507 0 .109-.02.184-.06.248-.09.114-.35.22-.8.269-.93.14-1.93.124-3.02-.05-.62-.048-1.27-.23-1.96-.545-.7-.315-1.24-.796-1.57-1.385l-.26-.682a.2.2 0 0 1-.08-.104c-.05-.2-.13-.303-.18-.327-.04-.025-.13.035-.21.183-.44.795-.49 1.524-.17 2.189.49.96 1.24 1.671 2.26 2.148 1.03.456 2.27.694 3.77.74 1 .072 1.55.104 1.63.153.04.025.05.058.04.08-.08.093-.28.146-.61.181-.7.079-1.14.074-1.31-.024-.24-.025-.38-.023-.49.004-.26.017-.84-.095-1.76-.314-.44-.114-.73-.197-.86-.27l-.45-.147c-.52-.163-.81-.213-.82-.192-.03.064.19.252.71.524.22.122.45.257.67.358Zm12.23-9.318c-.43-.42-.73-.679-.96-.78-.2-.089-.64-.203-1.3-.33l-.49-.138c.19-.12.64-.115 1.32-.03.26.037.47.104.7.205.26.126.51.293.72.503.22.21.29.39.24.474-.06.05-.13.069-.23.096Zm-2.93 20.89c.19.11.4.144.66.094-.34-1.519-.34-2.7-.03-3.567.11-.727.29-1.295.51-1.709.21-.414.37-.689.45-.837.4-.697 1.02-1.612 1.82-2.756l.07-.127c.04.024.1.027.16.01.07-.018.13-.07.18-.154.03-.097.02-.24-.02-.406-.04-.079-.06-.146-.03-.188.01-.021.04-.03.05-.051.09.049.19.076.29.083.26.004.6-.303 1.04-.922.07-.072.13-.178.22-.326.02-.076.01-.11-.01-.121-.32.013-.46.016-.49.004-.02-.013.01-.055.04-.118.07-.106.2-.196.41-.271.12-.048.22-.075.29-.06.19.023.27.017.31.008.01-.021.15-.166.43-.455.23-.15.39-.283.52-.407.12-.123.23-.205.29-.256.05-.051.11-.157.18-.263-.01-.033-.04-.078-.08-.157-.05-.058-.04-.188.07-.379.1-.169.19-.229.28-.18.06.037.11.094.15.173a.41.41 0 0 0 .09.137c.01.033.01.033.03.046.09-.006.18-.066.25-.193a.157.157 0 0 0 .02-.13c.09-.148.16-.22.2-.196l.4.286.07-.018c-.03-.1-.13-.27-.28-.443-.16-.173-.23-.298-.2-.395.06-.105.14-.199.23-.292a.779.779 0 0 1 .23-.205c.06-.051.11-.048.13-.036.04.025.03.1-.02.24-.09.202-.09.344-.03.38.32.041.58-.118.77-.456.14-.233.15-.45.03-.688l.02-.02.02.011c.4.232.77.222 1.13-.052.24-.171.46-.41.68-.648.3-.277.57-.491.78-.62a.706.706 0 0 0 .18-.209c.04-.063.05-.138.07-.214-.01-.088.36-.383 1.15-.916l.01-.02c.03-.064.1-.082.22-.097.3.029.48-.004.53-.088l-.02-.067c.02-.021.06-.051.16-.078.25-.084.41-.162.45-.246l.01-.251.06-.106c.99.377 1.56.618 1.71.704.49.226.81.3 1 .213.17-.099.29-.114.36-.077l.01.121c-.01.164.03.297.16.404.19.11.37.186.58.22.96.298 2.18.864 3.68 1.73.39.254.83.51 1.28.767.84.597 1.4 1.035 1.69 1.315.26.29.57.636.88 1.016.26.288.41.462.52.523.08.049.16.01.25-.139.07-.18.04-.314-.07-.43l-.14-.282c.02-.042.07-.072.14-.057.08.016.12-.014.16-.078-.04-.866-.25-1.47-.66-1.79-.27-.213-.38-.362-.35-.458.01-.022.04-.03.1-.027.05.003.11.04.23.08.1.027.18.076.25.113.06.036.1.06.16.064-.28-.782-1.51-1.775-3.7-3.011-2.19-1.237-3.97-2.12-5.35-2.662.24-.171.64-.42 1.21-.77.7-.439 1.3-.796 1.81-1.04.53-.23.86-.462 1.02-.737.07-.127.04-.314-.09-.53-.2-.34-.22-.637-.12-.915l.24-.368a.92.92 0 0 0 .17-.242c.14-.287.07-.608-.16-.994-.24-.507-.52-.862-.83-1.045-.47-.269-.99-.147-1.59.353a11 11 0 0 1-1.01.683l-3.11 2.209c-.83.705-1.44 1.171-1.81 1.379-.34.001-1.79-.611-4.37-1.903-1.86-.932-2.95-1.446-3.25-1.562-.69-.315-1.12-.538-1.31-.648l-.24-.168-.29-.137c-.03.009-.08-.016-.12-.04-.36-.208-.59-.254-.66-.127l-.01.02c-.15.506.28 1.035 1.27 1.608.61.355 1.05.665 1.29.887.07.07.13.128.19.165.51.49.75.745.73.787-.33-.074-.51-.096-.55-.032.01.142.1.279.23.385l1.1.635.03.046c-.02-.013-.07-.016-.2-.035-.13-.018-.22-.013-.25.03-.01.02-.01.075.02.12.1.313.49.654 1.17 1.045l2.68 1.123c-.15.111-.28.235-.38.37l-3.11 2.494c-2.33 1.95-4.37 4.014-6.12 6.163a30.67 30.67 0 0 0-1.28 1.968c-.67 1.163-1.12 2.23-1.34 3.201-.74 2.165-.63 4.031.31 5.564.28.356.52.611.71.721Zm2.39-8.968c-.02-.012.01-.109.07-.269.04-.063.08-.093.11-.081.03.045 0 .142-.06.248-.05.084-.08.127-.12.102Zm.67-.857.09-.169c.21-.36.37-.546.53-.515.02.012 0 .033-.02.075l-.33.429c-.16.132-.25.192-.27.18Zm1.46-1.662s-.01-.033.02-.075c.25-.39.48-.683.71-.888.23-.204.36-.295.43-.258l.01.033c-.05.085-.2.25-.44.51-.03.01-.06.018-.1.081-.04.064-.1.115-.18.209-.1.08-.17.153-.24.226-.08.093-.14.144-.17.153l-.04.01Zm4.66-4.555c-.02-.012-.01-.033 0-.054.05-.085.16-.166.32-.21.07-.019.13-.015.15-.003.01.033-.01.054-.02.076a.388.388 0 0 1-.21.162c-.11.048-.17.066-.24.03Zm1.18.311c-.09-.048-.14-.106-.1-.17.08-.093.14-.111.21-.074.08.049.11.094.06.179-.02.042-.07.072-.17.065Zm9.3-1.902a1.367 1.367 0 0 1-.36-.317c.07-.106.42.014 1.03.368.26.147.36.262.32.326-.05.084-.37-.044-.99-.377Zm1.99 1.038-.1-.06a.418.418 0 0 1-.15-.14c.03-.043.08-.04.16.009.09.049.14.107.2.198l-.11-.007Zm4.05 2.65c-.04-.025-.06-.037-.04-.08.03-.041.06-.05.13-.068.05.003.1.027.1.027.08.05.13.107.09.17-.03.064-.13.036-.28-.05Zm-.83-.707c-.49-.28-1.27-.82-2.35-1.585.53.197.99.432 1.43.688 1.02.586 1.49.942 1.43 1.081-.02.043-.18-.022-.51-.184Zm-6.51 2.103c.48.281 1.21.194 2.16-.275.3-.135.59-.248.84-.332.35-.077.58-.228.69-.418.04-.118.08-.236.1-.42.02-.185.06-.303.1-.366.03-.097.07-.127.09-.115 0 0 .04-.009.06.003.02.013.05.004.05.004.02.012.02-.022.03-.043.07-.411-.14-.84-.58-1.292a4.673 4.673 0 0 0-1.11-.92c-.49-.117-1.03-.007-1.62.33-.59.336-.97.652-1.19.978-.18.317-.31.495-.33.57-.23.457-.27.914-.1 1.351.25.452.51.775.81.945Zm-11.2 5.77c-.11-.094-.13-.27-.02-.46.13-.178.26-.247.39-.174.12.074.14.195.04.364-.13.266-.26.356-.41.27Zm-.09 3.813c.38.22.83.421 1.41.588l.28.104c.3.062.47.105.53.108.05.003.12-.014.17-.044.08-.04.18-.066.34-.111.56-.185 1.39-.3 2.46-.355.64-.028 1.11-.12 1.43-.276.42-.183.64-.333.72-.46.01-.021 0-.054-.02-.067-.09-.048-.38-.022-.88.057a12.66 12.66 0 0 1-3.37.17c-1.5-.134-2.36-.262-2.59-.396-.02-.013-.02-.013-.01-.034.04-.063.55-.11 1.48-.108 2.58-.031 4.85-.212 6.8-.609 2.34-.734 4.33-1.643 5.95-2.684.37-.207.57-.348.64-.475a.18.18 0 0 0-.02-.21.676.676 0 0 1-.07-.212l.36-.24c.52-.319.81-.52.84-.584.02-.021.02-.021 0-.033-.03-.013-.15.002-.33.035-3.31 1.387-5.77 2.224-7.39 2.532-1.62.274-3.17.313-4.65.103l-.11-.061c-.17-.098-.2-.231-.13-.412.22-.381 1.06-1.052 2.56-1.99.69-.452 1.25-.834 1.66-1.16.34-.252.68-.45 1.03-.56.56-.186.9-.439 1.04-.726.16-.275.11-.726-.13-1.397-.28-.53-.61-.89-.97-1.097-.68-.39-1.48-.264-2.42.38-.14.09-.29.168-.47.234-.19.087-.33.177-.45.246a25.887 25.887 0 0 0-5.41 4.63c-.5.562-.87 1.108-1.13 1.606-.79 1.572-.5 2.727.85 3.508Zm.89-4.814c-.06-.037-.06-.091-.06-.179a.532.532 0 0 1 .07-.215l.04-.084c.14-.178.26-.302.45-.422.14-.112.29-.223.41-.325.09-.115.25-.248.49-.42.24-.204.48-.376.75-.556.24-.172.43-.313.58-.37.16-.078.3-.135.41-.183.14-.036.24-.171.37-.383l.07-.181c.09-.203.16-.33.22-.38.04-.064.27-.215.68-.397.35-.165.58-.316.67-.43.22-.272.39-.426.54-.483a.9.9 0 0 1 .3-.08c.12-.015.24-.084.41-.183.24-.171.54-.197.9-.099l.1.028c.13.073.16.173.09.279-.02.097-.17.153-.41.183-.27.017-.44.028-.58.03-.15.003-.26.05-.31.135-.03.064-.22.184-.5.331l-.43.259-.34.056c-.23.062-.4.195-.48.343-.04.063-.09.148-.18.208-.08.094-.16.187-.27.323-.11.136-.22.238-.34.34a.516.516 0 0 0-.25.193c-.03.097-.11.19-.22.293l-.48.43c-.15.112-.32.211-.5.332-.37.207-.59.336-.65.388-.07.072-.25.138-.55.218-.12.015-.22.096-.28.256l-.48.628c-.11.102-.19.141-.24.117Zm10.87-7.343c-.03-.046-.04-.08 0-.143.06-.106.32-.32.81-.63.41-.215.65-.3.72-.262.04.024.05.057.01.12-.06.106-.28.29-.61.522-.56.294-.87.43-.93.392Zm3.48 17.851c.06.037.13.019.18-.066.04-.084.03-.151-.04-.188-.08-.048-.15-.03-.21.075-.05.085-.02.13.07.179Zm-5.65.351c.21.088.54.196 1.03.28.46.071.92.11 1.35.103.44-.029.71-.121.82-.312.08-.127.24-.205.51-.243.26-.05.4-.052.46-.016.02.012.02.012.01.034-.02.042-.1.081-.26.159-.25.084-.37.153-.38.174-.02.021-.02.021.01.033.06.037.3.008.73-.142.32-.123.49-.222.53-.285.01-.021.01-.021-.01-.034l-.18-.076c-.07-.037-.07-.07-.05-.112.06-.106.34-.199.86-.321.59-.139 1.1-.349 1.52-.586.41-.271.67-.376.75-.36.06.036.14-.003.21-.13.08-.127.16-.166.25-.138.09.049.24-.029.48-.234.15-.166.25-.247.31-.21.05.024.07.124.04.275.07.125.21.231.44.366.4.232 1.04.489 1.91.738.51.151.89.228 1.13.253a9.435 9.435 0 0 0 2.41-.325l.18-.011-1.38-.149c-.9.044-1.78-.15-2.61-.517-.33-.25-.48-.39-.45-.432.03-.064.22-.042.58.057.34.107.52.129.54.142.64.169 1.3.241 2.01.23 1.4-.037 2.14-.036 2.18-.066.04-.009.12-.015.27-.017.73-.055 1.13-.107 1.15-.15-.06-.036-.38-.077-.9-.098-.86-.019-1.4-.072-1.54-.158.66-.07 1.24-.1 1.71-.083.49.029.87-.002 1.15-.095.25-.084.46-.158.59-.194.36-.077.7-.221 1.06-.462-.66-.27-1.13-.286-1.39-.127-1.33-.036-2.35-.032-3.05-.041-.7-.01-1.44-.097-2.27-.267-.1.026-.32-.041-.63-.224-.24-.135-.31-.292-.19-.504.18-.263.31-.495.44-.673.13-.178.26-.39.38-.601.22-.435.34-.789.39-1.125-.02-.1.03-.239.13-.408.24-.51.25-.98.02-1.366-.11-.149-.23-.419-.39-.789-.26-.519-.49-.85-.72-.984-.09-.049-.24-.08-.44-.08a.788.788 0 0 1-.43-.082c-.15-.085-.29-.225-.48-.444-.28-.334-.58-.56-.85-.718-.8-.464-1.85-.56-3.1-.296-1.06.32-2.33 1.053-3.87 2.218-1.89 1.418-3.22 2.738-3.99 3.928-.78 1.353-.88 2.737-.3 4.138.36.744.77 1.239 1.28 1.532l.04.025Zm.73-3.02-.02-.012c-.15-.085-.15-.282.04-.599.06-.106.14-.2.21-.272.07-.072.19-.174.36-.328.59-.588 1.38-1.317 2.35-2.167.58-.512.92-.765 1.05-.746.12-.015.23-.096.31-.244.09-.148.27-.268.55-.361.26-.105.57-.261.9-.493.33-.231.58-.315.77-.26.18.077.43.048.73-.033.3-.08.51-.1.61-.04.09.05.07.18-.06.39l-.07.073c-.15.309-.24.675-.35 1.095-.1.42-.13.768-.09 1.044.03.243.01.427-.07.554-.13.178-.55.47-1.25.8-.71.351-1.48.666-2.34.986-.86.32-1.57.508-2.16.614-.74.109-1.24.134-1.47 0Zm.25 2.651c-.17-.097-.23-.188-.19-.252.08-.148.39-.195.95-.183.68-.003 1.56-.169 2.67-.485 1.09-.328 2.16-.757 3.17-1.243.6-.303.93-.425.99-.389.06.037.07.125.01.23-.08.127-.17.187-.3.169-.03.009-.44.225-1.15.63-.74.394-1.59.747-2.55 1.04-1.35.433-2.42.631-3.19.552-.2-.001-.35-.032-.41-.069Zm9.82-4.616c.04-.064.11-.19.22-.326.12-.157.25-.28.37-.404a.724.724 0 0 1 .31-.19c.03.046.01.088-.04.172-.1.17-.36.417-.8.697l-.06.05Zm.88.48c-.05-.059-.03-.134.02-.219l.1-.136c.11-.081.17-.099.21-.074.03.045.02.12-.07.269-.07.127-.16.187-.26.16Zm.61-.861c-.07-.07-.1-.116-.06-.18.05-.084.1-.135.17-.098.04.024.07.07.06.09a.329.329 0 0 1-.03.097c-.05.085-.1.115-.14.09Zm5.4 3.485.3-.026c.89-.166 1.59-.408 2.12-.781-.19-.076-.4-.056-.65.049-.24.117-.47.179-.69.221-.23.041-.47.125-.79.281-.17.099-.29.168-.32.211-.01.021.01.033.03.045Zm-1.07.734.25.004c.02-.021.04-.009.04-.009l.01-.021c.02.012.03-.009.04-.03-.2-.089-.31-.095-.37.011-.01.021.01.033.03.045Zm3.04-1.885c.1.061.2.034.26-.072.01-.054-.02-.1-.08-.157-.12.014-.18.032-.21.074-.03.064-.04.118-.02.13l.05.025Zm-4.26 1.713c.14.086.23.08.26.038.01-.021-.03-.046-.1-.083-.17-.043-.24-.058-.26-.037-.01.021 0 .054.02.067l.08.015Zm3.74 11.043c.15.085.53.162 1.16.244l.25.059c1.1.132 2.21.067 3.3-.152a.504.504 0 0 1 .38.023c.1.061.26.037.46-.071.23-.096.46-.158.69-.166.83-.115 1.64-.296 2.44-.565 1.13-.337 1.7-.544 1.76-.649-.13-.074-.67-.018-1.68.162-2.29.453-3.94.682-4.94.699l-.92.086c-.02-.012-.04-.024-.08-.015-.7.1-1.24.046-1.57-.116-.08-.049-.13-.107-.14-.195.12-.048.42-.095.93-.141.18-.011.35-.022.55-.022 1.61-.111 2.64-.224 3.08-.307.61-.073 1.24-.188 1.86-.337l.31-.047c1.39-.321 2.57-.655 3.55-1.023.25-.105.54-.164.84-.244.69-.112 1.14-.304 1.41-.539.13-.212.14-.342.11-.387-.03-.046-.06-.091-.04-.113.01-.021.12-.069.3-.134.82-.291 1.65-.711 2.46-1.231a5.693 5.693 0 0 0-1.84.064c-.87.178-1.72.389-2.61.61-3.57.956-6.46 1.427-8.69 1.436a.562.562 0 0 1-.23-.047c-.13-.073-.11-.258.05-.533.21-.359.84-1.01 1.94-1.983l.78-.73c.34-.286.66-.551.98-.816.73-.569 1.16-.937 1.26-1.106.07-.127.11-.332.13-.605l.08-.487c.13-.463.12-.802.05-1.014l-.04-.079c-.07-.07-.1-.17-.1-.313-.01-.372-.28-.782-.77-1.151-.73-.36-2.45-.114-5.13.731-.7.221-1.1.329-1.26.319-.11-.007-.18-.022-.26-.038-.15-.031-.29-.028-.38.032-.1.027-.17.045-.19.032l.01-.021c.04-.063.3-.277.82-.683l.13-.124c.43-.313.67-.539.73-.645.11-.19.05-.478-.18-.81-.11-.148-.2-.285-.23-.418-.28-.837-.52-1.31-.72-1.4-.23-.134-.68.058-1.35.576-.5.331-1.22.9-2.16 1.653-.91.689-2.29 1.81-4.2 3.358-1.16.991-1.84 1.672-2.04 2.032a.67.67 0 0 0-.05.62c.06.234.05.452-.04.654-.12.299-.12.496 0 .536.06.037.19.056.4.035.21-.02.32-.013.38.023.02.012.04.079.03.155-.15.253.04.506.53.786 1.2.018 2.32-.265 3.41-.878l.7-.33c-1.42.451-2.14.681-2.21.645-.02-.013 0-.034.01-.055.07-.127 1.41-.681 4.02-1.651.33-.122 1.04-.331 2.14-.626l2.4-.731c.38-.12.62-.149.71-.121.07.036.06.091.02.175-.05.085-.18.209-.37.383l-.26.214a19.358 19.358 0 0 0-3.42 3.722l-.21.326c-.21.359-.26.695-.19.962.03.243 0 .482-.05.675-.06.587.22 1.173.87 1.748l.13.074Zm-6.56-5.623c-.01-.033-.02-.066 0-.109.1-.169.41-.358.93-.535l.66-.266c1.81-.646 3.53-1.232 5.1-1.74 2.74-.896 4.3-1.295 4.65-1.23.02.012 0 .055-.04.118-.21.272-.74.502-1.58.693-.6.16-2.41.697-5.4 1.677-.33.144-1.66.59-3.93 1.306l-.18.066c-.1.027-.17.045-.21.02Zm17.13 2.899-.07-.037c-.04-.024-.04-.079.03-.184l.02-.043c.01-.021.03-.009.08.016.06.036.08.103.03.188-.04.063-.07.072-.09.06Zm.22-.042-.06-.003c-.04-.024-.02-.1.04-.206.03-.063.08-.093.12-.069.07.037.06.091.03.155-.09.093-.11.136-.13.123Zm.37-.152-.04-.025s-.01-.033 0-.109c.06-.105.12-.157.18-.12.06.058.07.124.03.209-.02.021-.05.03-.1.06-.03.009-.05-.003-.07-.015Zm.78-.282c-.04-.024-.04-.024-.03-.045a.402.402 0 0 1 .15-.111l.33-.09c.2-.053.32-.068.43-.062.02.013.05.025.03.046l-.02.042c-.24.117-.43.204-.6.216-.16.023-.27.017-.29.004Z" fill="#725A1A"/><g opacity=".03" fill="#fff"><path d="M509.554 561.223c1.254 3.643 2.797 6.202 2.899 6.369a2.433 2.433 0 0 0 2.643 1.099c.559-.134 13.733-3.389 17.739-13.023.32-.772.606-1.551.857-2.334-7.268 4.365-15.767 6.767-24.138 7.889ZM487.538 538.903a29.7 29.7 0 0 1 2.644-.128c1.828-10.88 5.915-21.713 13.72-29.517a62.993 62.993 0 0 1 5.509-4.894c-2.499-.712-5.66-.902-9.643-.105-7.814 1.563-11.486 9.992-13.247 17.74-1.663 7.317-1.682 14.197-1.682 14.486a2.436 2.436 0 0 0 2.699 2.418ZM500.824 561.948c-1.406.044-3.466.065-4.875-.013a7.292 7.292 0 0 1-6.883-6.887c-.052-.962-.078-2.809-.013-4.871-3.279.454-7.746.571-13.143-.509a2.433 2.433 0 0 0-2.91 2.385c0 5.134 1.682 9.64 4.614 12.362a172.17 172.17 0 0 1 8.972 8.973c2.723 2.932 7.228 4.613 12.362 4.613a2.433 2.433 0 0 0 2.385-2.909c-1.079-5.398-.962-9.865-.509-13.144Z"/><path d="M547.005 529.837c-11.194-.782-25.026-14.593-25.839-25.811-.01-.13-.007-.052-.007-1.627-5.213 2.879-9.856 6.337-13.816 10.298-8.808 8.808-12.441 22.399-13.28 34.704-.209 3.084-.218 5.938-.139 7.382a2.433 2.433 0 0 0 2.295 2.294c3.101.173 8.944-.056 14.58-.953 8.613-1.375 17.299-4.224 24.169-9.538.003-.052 1.277-.92 3.45-3.043 3.896-3.919 7.347-8.534 10.145-13.594l-1.558-.112Z"/><path d="M555.85 502.92c-.212-1.837-.801-3.888-2.02-5.3-2.677-3.104-8.852-2.85-12.909-2.237-5.041.762-10.288 2.495-14.896 4.578v3.796c.711 8.799 12.589 20.617 21.323 21.227l3.59.257c2.906-6.358 5.754-15.402 4.912-22.321Zm-17.828 7.166a2.428 2.428 0 0 1-.999-3.289c.592-1.182 2.216-1.718 3.495-.877.517.341.897.887 1.035 1.547.387 2.07-1.767 3.565-3.531 2.619Z"/></g><g opacity=".03" fill="#fff"><path d="M534.425 121.372c.906 2.634 2.022 4.483 2.095 4.604.4.655 1.173.971 1.911.794.404-.096 9.927-2.449 12.823-9.414a21.53 21.53 0 0 0 .62-1.687c-5.254 3.155-11.398 4.892-17.449 5.703ZM518.509 105.237c.017-.002.79-.083 1.912-.092 1.321-7.865 4.276-15.697 9.918-21.338a45.507 45.507 0 0 1 3.982-3.538c-1.806-.515-4.091-.652-6.971-.076-5.648 1.13-8.303 7.223-9.576 12.824-1.202 5.29-1.216 10.263-1.216 10.472 0 1.04.904 1.86 1.951 1.748ZM528.114 121.896c-1.016.032-2.506.047-3.524-.009a5.27 5.27 0 0 1-4.976-4.979 45.615 45.615 0 0 1-.009-3.521c-2.371.328-5.6.413-9.502-.368a1.759 1.759 0 0 0-2.103 1.724c0 3.711 1.216 6.969 3.335 8.937a123.987 123.987 0 0 1 6.486 6.486c1.968 2.119 5.226 3.335 8.937 3.335a1.76 1.76 0 0 0 1.724-2.104c-.781-3.901-.696-7.13-.368-9.501Z"/><path d="M561.498 98.683c-8.093-.565-18.092-10.549-18.679-18.658-.007-.094-.005-.038-.005-1.176-3.769 2.08-7.125 4.58-9.988 7.444-6.367 6.367-8.993 16.192-9.6 25.087-.151 2.23-.157 4.293-.1 5.336a1.76 1.76 0 0 0 1.658 1.659c2.243.125 6.466-.04 10.54-.689 6.227-.994 12.506-3.054 17.472-6.895.002-.038.923-.665 2.494-2.2 2.817-2.833 5.311-6.169 7.334-9.827l-1.126-.08Z"/><path d="M567.891 79.225c-.153-1.328-.578-2.81-1.46-3.83-1.935-2.245-6.398-2.061-9.331-1.618-3.644.55-7.437 1.803-10.769 3.31v2.744c.515 6.36 9.101 14.903 15.415 15.344l2.594.186c2.102-4.596 4.161-11.134 3.551-16.136Zm-12.887 5.18a1.755 1.755 0 0 1-.722-2.377c.428-.854 1.602-1.242 2.526-.634.374.246.649.641.748 1.118.28 1.497-1.277 2.577-2.552 1.894Z"/></g><g opacity=".03" fill="#fff"><path d="M1368.61 610.052c-1.04 3.03-2.32 5.156-2.41 5.295a2.026 2.026 0 0 1-2.2.914c-.46-.112-11.41-2.817-14.74-10.827-.27-.641-.51-1.289-.71-1.939 6.04 3.628 13.1 5.625 20.06 6.557ZM1386.91 591.497c-.02-.002-.9-.095-2.19-.105-1.52-9.045-4.92-18.051-11.41-24.539a52.039 52.039 0 0 0-4.58-4.068c2.08-.592 4.71-.75 8.02-.088 6.49 1.3 9.55 8.306 11.01 14.748 1.38 6.083 1.4 11.802 1.4 12.042 0 1.197-1.04 2.14-2.25 2.01ZM1375.87 610.655c1.17.037 2.88.055 4.05-.01a6.06 6.06 0 0 0 5.72-5.725c.05-.801.07-2.336.01-4.05 2.73.377 6.44.474 10.93-.423 1.25-.25 2.42.705 2.42 1.983 0 4.267-1.4 8.013-3.84 10.277a145.157 145.157 0 0 0-7.45 7.458c-2.27 2.438-6.01 3.836-10.28 3.836a2.02 2.02 0 0 1-1.98-2.419c.89-4.487.8-8.201.42-10.927Z"/><path d="M1337.48 583.961c9.3-.65 20.8-12.131 21.48-21.457.01-.108 0-.043 0-1.353 4.34 2.394 8.2 5.268 11.49 8.561 7.32 7.322 10.34 18.621 11.04 28.85.17 2.564.18 4.937.12 6.137a2.026 2.026 0 0 1-1.91 1.907c-2.58.144-7.44-.046-12.12-.792-7.16-1.143-14.38-3.512-20.1-7.929 0-.044-1.06-.765-2.86-2.53-3.24-3.258-6.11-7.095-8.44-11.301l1.3-.093Z"/><path d="M1330.12 561.584c.18-1.527.67-3.233 1.68-4.406 2.23-2.581 7.36-2.369 10.74-1.859 4.19.633 8.55 2.073 12.38 3.805v3.156c-.59 7.315-10.47 17.139-17.73 17.647l-2.98.213c-2.42-5.286-4.79-12.804-4.09-18.556Zm14.83 5.957a2.021 2.021 0 1 0-2.08-3.463 2.01 2.01 0 0 0-.86 1.286c-.32 1.721 1.47 2.964 2.94 2.177Z"/></g><g opacity=".03" fill="#fff"><path d="M1003.58 596.095c.74 2.151 1.65 3.662 1.71 3.76.33.535.96.793 1.56.649.33-.079 8.11-2 10.47-7.688.19-.456.36-.916.51-1.378-4.29 2.577-9.31 3.995-14.25 4.657ZM990.582 582.918c.014-.001.645-.068 1.561-.075 1.08-6.423 3.493-12.819 8.097-17.426a37.892 37.892 0 0 1 3.26-2.889c-1.48-.42-3.35-.532-5.697-.062-4.613.923-6.781 5.899-7.821 10.473-.982 4.32-.993 8.381-.993 8.552 0 .849.738 1.519 1.593 1.427ZM998.426 596.523c-.83.026-2.046.039-2.878-.007a4.306 4.306 0 0 1-4.063-4.066 37.308 37.308 0 0 1-.008-2.876c-1.936.268-4.573.337-7.759-.3a1.436 1.436 0 0 0-1.718 1.408c0 3.03.993 5.691 2.724 7.298a101.779 101.779 0 0 1 5.297 5.297c1.607 1.731 4.267 2.724 7.298 2.724.905 0 1.586-.83 1.408-1.718-.637-3.187-.568-5.824-.301-7.76Z"/><path d="M1025.69 577.567c-6.61-.462-14.77-8.615-15.25-15.238-.01-.077-.01-.031-.01-.961-3.08 1.7-5.82 3.741-8.16 6.08-5.195 5.2-7.34 13.223-7.835 20.488-.124 1.82-.129 3.505-.082 4.358.04.73.624 1.314 1.354 1.354 1.831.102 5.283-.033 8.603-.562 5.09-.812 10.22-2.495 14.27-5.631.01-.031.76-.544 2.04-1.797a36.349 36.349 0 0 0 5.99-8.026l-.92-.065Z"/><path d="M1030.91 561.675c-.12-1.084-.47-2.295-1.19-3.128-1.58-1.833-5.23-1.683-7.62-1.321-2.98.45-6.08 1.473-8.8 2.703v2.241c.42 5.195 7.44 12.171 12.59 12.532l2.12.151c1.72-3.754 3.4-9.093 2.9-13.178Zm-10.52 4.231a1.425 1.425 0 0 1-.59-1.941c.35-.698 1.31-1.015 2.06-.518.31.201.53.523.61.913.23 1.222-1.04 2.105-2.08 1.546Z"/></g><g opacity=".03" fill="#fff"><path d="M1100.58 85.095c.74 2.151 1.65 3.662 1.71 3.76.33.535.96.793 1.56.649.33-.079 8.11-2 10.47-7.688.19-.456.36-.916.51-1.378-4.29 2.577-9.31 3.995-14.25 4.657ZM1087.58 71.918c.02-.001.65-.068 1.56-.075 1.08-6.423 3.5-12.819 8.1-17.426a37.857 37.857 0 0 1 3.26-2.889c-1.48-.42-3.35-.532-5.7-.062-4.61.923-6.78 5.899-7.82 10.473-.98 4.32-.99 8.381-.99 8.552 0 .85.74 1.52 1.59 1.427ZM1095.43 85.523c-.83.026-2.05.039-2.88-.007a4.313 4.313 0 0 1-4.07-4.066c-.03-.568-.04-1.658 0-2.876-1.94.268-4.58.337-7.76-.3-.89-.177-1.72.5-1.72 1.408 0 3.03.99 5.69 2.72 7.298a98.43 98.43 0 0 1 5.3 5.297c1.61 1.73 4.27 2.724 7.3 2.724.9 0 1.58-.83 1.41-1.718-.64-3.187-.57-5.824-.3-7.76Z"/><path d="M1122.69 66.567c-6.61-.462-14.77-8.615-15.25-15.238-.01-.077-.01-.03-.01-.96-3.08 1.699-5.82 3.74-8.16 6.079-5.2 5.2-7.34 13.223-7.84 20.488-.12 1.82-.12 3.505-.08 4.358.04.73.63 1.314 1.36 1.354 1.83.102 5.28-.033 8.6-.562 5.09-.812 10.22-2.495 14.27-5.631.01-.031.76-.544 2.04-1.797 2.3-2.314 4.34-5.038 5.99-8.026l-.92-.065Z"/><path d="M1127.91 50.675c-.12-1.084-.47-2.295-1.19-3.128-1.58-1.833-5.23-1.683-7.62-1.32-2.98.449-6.08 1.472-8.8 2.702v2.241c.42 5.195 7.44 12.171 12.59 12.532l2.12.151c1.72-3.754 3.4-9.093 2.9-13.178Zm-10.52 4.231a1.426 1.426 0 0 1-.59-1.941c.35-.698 1.31-1.015 2.06-.518.31.201.53.523.61.913.23 1.222-1.04 2.105-2.08 1.546Z"/></g><g opacity=".03" fill="#fff"><path d="M1288.26 168.319c-.57 1.668-1.28 2.839-1.32 2.916-.26.414-.75.615-1.21.503-.26-.061-6.29-1.551-8.12-5.962-.15-.354-.28-.71-.4-1.069 3.33 1.998 7.22 3.098 11.05 3.612ZM1298.34 158.1c-.01-.001-.5-.053-1.21-.058-.83-4.982-2.7-9.942-6.28-13.515a29.52 29.52 0 0 0-2.52-2.24c1.14-.326 2.59-.413 4.41-.048 3.58.715 5.26 4.574 6.07 8.122.76 3.35.77 6.499.77 6.632 0 .659-.57 1.178-1.24 1.107ZM1292.26 168.651c.64.02 1.59.03 2.23-.006a3.328 3.328 0 0 0 3.15-3.153c.03-.441.04-1.286.01-2.23 1.5.207 3.55.261 6.02-.233a1.11 1.11 0 0 1 1.33 1.092c0 2.35-.77 4.413-2.11 5.659a75.83 75.83 0 0 0-4.11 4.108c-1.25 1.342-3.31 2.112-5.66 2.112-.7 0-1.23-.643-1.09-1.332.49-2.471.44-4.516.23-6.017Z"/><path d="M1271.12 153.95c5.12-.359 11.46-6.682 11.83-11.818v-.744c2.39 1.318 4.51 2.901 6.33 4.714 4.03 4.033 5.69 10.255 6.08 15.889.09 1.412.1 2.719.06 3.379a1.11 1.11 0 0 1-1.05 1.051c-1.42.079-4.1-.026-6.68-.436-3.94-.63-7.92-1.935-11.06-4.367 0-.024-.59-.421-1.58-1.394a28.305 28.305 0 0 1-4.64-6.223l.71-.051Z"/><path d="M1267.07 141.626c.1-.841.37-1.78.92-2.426 1.23-1.422 4.06-1.305 5.91-1.024 2.31.348 4.71 1.141 6.82 2.095v1.738c-.32 4.029-5.76 9.439-9.76 9.719l-1.64.117c-1.33-2.911-2.64-7.051-2.25-10.219Zm8.16 3.281c.53-.274.76-.947.46-1.506-.27-.541-1.02-.786-1.6-.402-.24.157-.41.407-.48.709-.17.947.81 1.632 1.62 1.199Z"/></g><g opacity=".03" fill="#fff"><path d="M538.86 333.297c-.725 2.108-1.617 3.587-1.676 3.684-.32.523-.938.776-1.529.635-.323-.077-7.942-1.959-10.258-7.531a17.262 17.262 0 0 1-.496-1.35c4.203 2.524 9.119 3.913 13.959 4.562ZM551.593 320.389c-.014-.001-.632-.066-1.529-.073-1.058-6.292-3.422-12.557-7.935-17.071a36.296 36.296 0 0 0-3.186-2.83c1.445-.411 3.273-.521 5.577-.06 4.519.903 6.642 5.778 7.661 10.259.961 4.231.973 8.21.973 8.377 0 .832-.723 1.489-1.561 1.398ZM543.909 333.717c.813.026 2.005.038 2.819-.008a4.217 4.217 0 0 0 3.981-3.982c.03-.557.045-1.625.007-2.817 1.897.262 4.48.33 7.601-.295a1.408 1.408 0 0 1 1.683 1.38c0 2.969-.973 5.574-2.668 7.149a99.197 99.197 0 0 0-5.189 5.189c-1.575 1.695-4.18 2.668-7.149 2.668a1.407 1.407 0 0 1-1.379-1.683c.624-3.121.556-5.705.294-7.601Z"/><path d="M517.202 315.147c6.474-.452 14.473-8.439 14.943-14.927.005-.075.004-.03.004-.941 3.015 1.665 5.7 3.665 7.99 5.956 5.094 5.093 7.195 12.953 7.68 20.069.121 1.784.126 3.434.08 4.269a1.406 1.406 0 0 1-1.327 1.327c-1.793.1-5.172-.032-8.432-.551-4.98-.795-10.004-2.443-13.977-5.516-.002-.03-.739-.532-1.995-1.76-2.254-2.266-4.249-4.935-5.867-7.862l.901-.064Z"/><path d="M512.087 299.58c.122-1.062.463-2.249 1.168-3.065 1.548-1.795 5.119-1.648 7.465-1.293 2.915.44 5.95 1.442 8.615 2.647v2.196c-.411 5.088-7.281 11.922-12.332 12.275l-2.075.149c-1.681-3.677-3.328-8.908-2.841-12.909Zm10.31 4.144a1.404 1.404 0 0 0 .578-1.902c-.343-.683-1.282-.993-2.022-.507a1.409 1.409 0 0 0-.598.895c-.224 1.197 1.022 2.061 2.042 1.514Z"/></g></svg>